<svg width="27" height="14" viewBox="0 0 27 14" fill="none" xmlns="http://www.w3.org/2000/svg">
<path d="M4.91242 0.370341C5.12231 0.429354 5.30716 0.555349 5.43883 0.729136C5.57049 0.902922 5.64175 1.11498 5.64175 1.33301V12.6663C5.64175 12.9316 5.5364 13.1859 5.34886 13.3734C5.16132 13.561 4.90697 13.6663 4.64175 13.6663C4.37654 13.6663 4.12218 13.561 3.93465 13.3734C3.74711 13.1859 3.64175 12.9316 3.64175 12.6663V4.11034C3.13242 4.60367 2.52175 5.10501 1.82309 5.52367C1.59583 5.65706 1.32512 5.69535 1.06979 5.63024C0.814458 5.56513 0.595145 5.40187 0.459522 5.17594C0.323899 4.95002 0.282928 4.6797 0.345513 4.42374C0.408099 4.16777 0.569184 3.94686 0.793753 3.80901C1.69509 3.26901 2.44709 2.52234 2.98309 1.89034C3.27082 1.55174 3.53712 1.19549 3.78042 0.823675L3.78709 0.813008C3.90054 0.62675 4.0731 0.482687 4.27602 0.40277C4.47894 0.322854 4.70243 0.311466 4.91242 0.370341ZM11.5324 4.66101C11.6645 4.67575 11.7982 4.66403 11.9256 4.62652C12.0531 4.58901 12.1718 4.52647 12.2749 4.44255C12.3779 4.35864 12.4632 4.25503 12.5257 4.13778C12.5883 4.02053 12.6268 3.89199 12.6391 3.75967C12.6453 3.72679 12.6586 3.67434 12.6791 3.60234C12.7244 3.45967 12.8044 3.27167 12.9378 3.08767C13.1738 2.76234 13.6578 2.33301 14.7751 2.33301C15.8058 2.33301 16.3751 2.64768 16.6738 3.02634C16.9831 3.41968 17.1724 4.09701 16.9898 5.16367C16.8884 5.75034 16.6124 6.08367 16.1724 6.37168C15.7991 6.61701 15.3858 6.78634 14.8711 6.99834C14.6578 7.08545 14.4249 7.18323 14.1724 7.29167C13.3831 7.63834 12.4658 8.11034 11.7658 8.97568C11.0458 9.86368 10.6418 11.053 10.6418 12.6663C10.6418 12.9316 10.7471 13.1859 10.9346 13.3734C11.1222 13.561 11.3765 13.6663 11.6418 13.6663H17.9751C18.2403 13.6663 18.4947 13.561 18.6822 13.3734C18.8697 13.1859 18.9751 12.9316 18.9751 12.6663C18.9751 12.4011 18.8697 12.1468 18.6822 11.9592C18.4947 11.7717 18.2403 11.6663 17.9751 11.6663H12.7191C12.8324 10.997 13.0618 10.553 13.3191 10.2343C13.7084 9.75434 14.2578 9.43834 14.9724 9.12501C15.1262 9.05834 15.2929 8.98856 15.4724 8.91568C16.0458 8.68101 16.7218 8.40367 17.2698 8.04367C18.0764 7.51567 18.7471 6.73967 18.9604 5.50234C19.2004 4.10234 19.0244 2.77967 18.2444 1.78901C17.4551 0.786341 16.2098 0.333008 14.7751 0.333008C13.0151 0.333008 11.9311 1.07034 11.3191 1.91167C10.9812 2.38126 10.7546 2.92156 10.6564 3.49168L10.6498 3.53167V3.54634L10.6484 3.55301V3.55567C10.6471 3.55834 10.5898 4.08901 10.6484 3.55834C10.6196 3.82175 10.6965 4.08584 10.8623 4.29258C11.028 4.49933 11.269 4.63184 11.5324 4.66101ZM22.0164 7.29301C21.8279 7.11076 21.5753 7.00984 21.3131 7.012C21.051 7.01415 20.8001 7.1192 20.6146 7.30452C20.4291 7.48984 20.3238 7.74061 20.3214 8.00281C20.319 8.265 20.4197 8.51765 20.6018 8.70634L22.2284 10.333L20.6018 11.9597C20.4251 12.1492 20.3289 12.4 20.3335 12.659C20.3381 12.9181 20.443 13.1653 20.6263 13.3485C20.8095 13.5317 21.0567 13.6367 21.3157 13.6412C21.5748 13.6458 21.8255 13.5496 22.0151 13.373L23.6418 11.7463L25.2684 13.373C25.458 13.5496 25.7087 13.6458 25.9678 13.6412C26.2269 13.6367 26.474 13.5317 26.6572 13.3485C26.8405 13.1653 26.9454 12.9181 26.95 12.659C26.9546 12.4 26.8584 12.1492 26.6818 11.9597L25.0551 10.333L26.6818 8.70634C26.78 8.61479 26.8588 8.50439 26.9135 8.38173C26.9681 8.25906 26.9975 8.12664 26.9999 7.99237C27.0022 7.8581 26.9775 7.72473 26.9272 7.60021C26.877 7.47569 26.8021 7.36258 26.7071 7.26762C26.6122 7.17267 26.4991 7.09781 26.3745 7.04751C26.25 6.99722 26.1167 6.97252 25.9824 6.97489C25.8481 6.97725 25.7157 7.00664 25.593 7.0613C25.4704 7.11596 25.36 7.19476 25.2684 7.29301L23.6418 8.91967L22.0164 7.29301ZM8.97509 12.6663C8.97509 12.9317 8.86966 13.1863 8.682 13.3739C8.49434 13.5616 8.23981 13.667 7.97442 13.667C7.70903 13.667 7.4545 13.5616 7.26684 13.3739C7.07918 13.1863 6.97375 12.9317 6.97375 12.6663C6.97375 12.4011 7.07911 12.1468 7.26665 11.9592C7.45418 11.7717 7.70854 11.6663 7.97375 11.6663C8.23897 11.6663 8.49332 11.7717 8.68086 11.9592C8.8684 12.1468 8.97375 12.4011 8.97375 12.6663" fill="black"/>
</svg>
