<svg width="25" height="25" viewBox="0 0 25 25" fill="none" xmlns="http://www.w3.org/2000/svg">
<path fill-rule="evenodd" clip-rule="evenodd" d="M2.11255 11.7188C2.30961 9.09873 3.48952 6.64992 5.41584 4.86307C7.34216 3.07621 9.87259 2.08333 12.5 2.08337C11.6355 2.08337 10.8646 2.46254 10.2292 3.04275C9.59901 3.61983 9.06672 4.42608 8.63547 5.37817C8.20213 6.3365 7.86463 7.45733 7.63651 8.67296C7.45148 9.67873 7.34077 10.6968 7.30526 11.7188H2.11255ZM2.11255 13.2813H7.30526C7.34276 14.325 7.45421 15.3521 7.63651 16.3271C7.86567 17.5428 8.20213 18.6636 8.63547 19.6219C9.06672 20.574 9.59901 21.3803 10.2292 21.9573C10.8646 22.5375 11.6355 22.9167 12.5 22.9167C7.01047 22.9167 2.51151 18.6698 2.11255 13.2813Z" fill="#333C55"/>
<path d="M12.5939 3.125C12.3074 3.125 11.9376 3.24688 11.5074 3.64063C11.0741 4.0375 10.6397 4.65938 10.2564 5.50625C9.87513 6.34792 9.56575 7.36354 9.35325 8.49896C9.18659 9.39271 9.08242 10.3406 9.04492 11.3073H16.1428C16.1089 10.3649 16.0059 9.42626 15.8345 8.49896C15.622 7.36354 15.3137 6.34792 14.9314 5.50625C14.548 4.65938 14.1147 4.0375 13.6814 3.64167C13.2501 3.24688 12.8803 3.125 12.5939 3.125ZM9.35325 15.6781C9.56575 16.8135 9.87513 17.8292 10.2564 18.6708C10.6397 19.5177 11.0741 20.1396 11.5064 20.5354C11.9376 20.9302 12.3085 21.0521 12.5939 21.0521C12.8803 21.0521 13.2501 20.9302 13.6803 20.5365C14.1147 20.1396 14.548 19.5177 14.9314 18.6708C15.3126 17.8292 15.622 16.8135 15.8345 15.6781C16.0022 14.7844 16.1064 13.8365 16.1428 12.8698H9.04492C9.08138 13.8365 9.18555 14.7844 9.35325 15.6781Z" fill="#333C55"/>
<path d="M12.5 2.08337C13.3656 2.08337 14.1354 2.46254 14.7708 3.04275C15.401 3.61983 15.9344 4.42608 16.3646 5.37817C16.799 6.3365 17.1354 7.45733 17.3635 8.67296C17.5458 9.64796 17.6573 10.675 17.6948 11.7188H22.8875C22.6904 9.09873 21.5105 6.64992 19.5842 4.86307C17.6579 3.07621 15.1275 2.08333 12.5 2.08337ZM17.3635 16.3271C17.1354 17.5428 16.799 18.6636 16.3646 19.6219C15.9344 20.574 15.401 21.3803 14.7708 21.9573C14.1354 22.5375 13.3656 22.9167 12.5 22.9167C17.9896 22.9167 22.4885 18.6698 22.8875 13.2813H17.6948C17.6593 14.3033 17.5486 15.3214 17.3635 16.3271Z" fill="#333C55"/>
</svg>
