<svg width="24" height="24" viewBox="0 0 24 24" fill="none" xmlns="http://www.w3.org/2000/svg">
<path d="M20.259 2.251C20.4402 2.25128 20.6152 2.31717 20.7516 2.43647C20.888 2.55578 20.9766 2.72043 21.001 2.9L21.008 3.002L21.004 7.499C21.0026 8.052 20.7979 8.58518 20.429 8.9971C20.06 9.40902 19.5525 9.67093 19.003 9.733V11.993C19.0031 12.5631 18.7867 13.112 18.3976 13.5288C18.0086 13.9455 17.4758 14.199 16.907 14.238L16.753 14.243H16.5V17.035C16.5002 17.433 16.3947 17.824 16.1944 18.168C15.9942 18.5119 15.7062 18.7966 15.36 18.993L15.205 19.073L8.57 22.179C8.46341 22.2288 8.3466 22.2529 8.22898 22.2493C8.11137 22.2456 7.99627 22.2143 7.89299 22.158C7.7897 22.1016 7.70112 22.0217 7.63441 21.9248C7.56771 21.8279 7.52475 21.7166 7.509 21.6L7.502 21.5V14.243H7.25C6.67987 14.2431 6.13098 14.0267 5.71425 13.6376C5.29751 13.2486 5.04402 12.7158 5.005 12.147L5 11.993V9.733C4.47806 9.67464 3.99297 9.43554 3.6288 9.05712C3.26462 8.67869 3.0443 8.1848 3.006 7.661L3 7.497V3.001C3.00006 2.81098 3.07224 2.62806 3.20197 2.48921C3.3317 2.35036 3.5093 2.26593 3.69888 2.25297C3.88846 2.24002 4.07589 2.29952 4.2233 2.41943C4.37071 2.53935 4.4671 2.71075 4.493 2.899L4.5 3.001V7.497C4.5 7.877 4.782 8.191 5.148 8.241L5.25 8.247H18.751C19.131 8.247 19.446 7.964 19.497 7.598L19.504 7.497L19.508 3C19.508 2.80109 19.587 2.61032 19.7277 2.46967C19.8683 2.32902 20.0591 2.25 20.258 2.25M15 14.243H9.003V20.32L14.57 17.714C14.6825 17.6613 14.7802 17.5814 14.8542 17.4815C14.9282 17.3817 14.9763 17.265 14.994 17.142L15.002 17.035L15 14.243ZM17.502 9.747H6.5V11.993C6.5 12.373 6.782 12.687 7.148 12.736L7.25 12.743H16.753C16.9342 12.743 17.1093 12.6774 17.2459 12.5582C17.3825 12.4391 17.4714 12.2746 17.496 12.095L17.503 11.993L17.502 9.747Z" fill="black"/>
<path d="M15 14.243H9.003V20.32L14.57 17.714C14.6825 17.6613 14.7802 17.5814 14.8542 17.4815C14.9282 17.3817 14.9763 17.265 14.994 17.142L15.002 17.035L15 14.243Z" fill="#FFEA00"/>
<path d="M17.502 9.747H6.5V11.993C6.5 12.373 6.782 12.687 7.148 12.736L7.25 12.743H16.753C16.9342 12.743 17.1093 12.6774 17.2459 12.5582C17.3825 12.4391 17.4714 12.2746 17.496 12.095L17.503 11.993L17.502 9.747Z" fill="#FFEA00"/>
</svg>
