<svg width="97" height="86" viewBox="0 0 97 86" fill="none" xmlns="http://www.w3.org/2000/svg">
<path d="M40.7875 83.2827C40.7875 83.2827 40.3521 84.9409 45.8308 84.9409C51.3095 84.9409 50.7214 83.0209 50.7214 83.0209" stroke="#003FEB"/>
<path d="M42.3677 81.7994C42.3677 81.7994 42.635 82.4976 45.9048 82.4976C49.1746 82.4976 49.1408 81.7994 49.1408 81.7994" stroke="#003FEB"/>
<path d="M40.75 83.3527L42.5057 81.4998L41.5134 83.9704L42.8874 82.1174L42.5057 84.3233L43.5744 82.2939L43.6508 84.588L44.4141 82.4704L44.7195 84.6763L45.4065 82.5586L45.8645 84.6763L46.3989 82.5586L46.8569 84.6763L47.3149 82.4704L47.8492 84.588L48.1546 82.2939L48.8416 84.4116V82.1174L49.9866 83.9704L49.2996 81.8527L50.75 83.3527" stroke="#003FEB" stroke-linejoin="round"/>
<path d="M40.8462 83.5L0.75 52.8333L4.21154 46.7L5.36538 45.3857L6.51923 43.1952L45.75 74.7381L28.2981 56.9952L10.8462 39.2524L11.7115 37.5L28.7308 56.119L45.75 74.7381L44.8846 76.4905L44.0192 78.2429L40.8462 83.5Z" fill="#003FEB"/>
<path d="M44.0192 78.2429L40.8462 83.5L0.75 52.8333L4.21154 46.7M44.0192 78.2429L4.21154 46.7M44.0192 78.2429L44.8846 76.4905M4.21154 46.7L5.36538 45.3857M44.8846 76.4905L5.36538 45.3857M44.8846 76.4905L45.75 74.7381M5.36538 45.3857L6.51923 43.1952L45.75 74.7381M45.75 74.7381C45.75 74.7381 35.3772 63.3902 28.7308 56.119C22.0843 48.8479 11.7115 37.5 11.7115 37.5L10.8462 39.2524L28.2981 56.9952L45.75 74.7381Z" stroke="#003FEB" stroke-width="1.5" stroke-linejoin="round"/>
<path d="M50.7628 83.5L91.75 52.8333L88.2115 46.7L87.0321 45.3857L85.8526 43.1952L45.75 74.7381L81.4295 39.2524L80.5449 37.5L45.75 74.7381L46.6346 76.4905L47.5192 78.2429L50.7628 83.5Z" fill="#003FEB"/>
<path d="M47.5192 78.2429L50.7628 83.5L91.75 52.8333L88.2115 46.7M47.5192 78.2429L88.2115 46.7M47.5192 78.2429L46.6346 76.4905M88.2115 46.7L87.0321 45.3857M46.6346 76.4905L87.0321 45.3857M46.6346 76.4905L45.75 74.7381M87.0321 45.3857L85.8526 43.1952L45.75 74.7381M45.75 74.7381L81.4295 39.2524L80.5449 37.5L45.75 74.7381Z" stroke="#003FEB" stroke-width="1.5" stroke-linejoin="round"/>
<mask id="path-8-inside-1_111_1195" fill="white">
<path d="M57.3059 56.5281C57.3121 56.5188 57.3215 56.5094 57.3278 56.5C58.3521 55.2818 59.1721 53.8875 59.7358 52.3687C60.2986 50.8527 60.6059 49.2126 60.6059 47.5C60.6059 44.0719 59.3746 40.9344 57.3309 38.5C57.3246 38.4906 57.3153 38.4844 57.309 38.475C57.2746 38.4344 57.2434 38.3969 57.209 38.3594C57.1965 38.3438 57.184 38.3313 57.1715 38.3156L57.0434 38.1687L57.0403 38.1656C56.9934 38.1125 56.9434 38.0594 56.8965 38.0062L56.8934 38.0031C56.7934 37.8969 56.6934 37.7906 56.5903 37.6875L56.5871 37.6844L56.4371 37.5344L56.4278 37.525C56.3809 37.4781 56.334 37.4344 56.2871 37.3906C56.2715 37.375 56.2559 37.3594 56.2371 37.3438C56.2059 37.3125 56.1746 37.2844 56.1434 37.2562C56.134 37.2469 56.1215 37.2375 56.1121 37.225C53.6184 34.9125 50.2778 33.5 46.6059 33.5C42.934 33.5 39.5934 34.9125 37.0965 37.225C37.0871 37.2344 37.0746 37.2437 37.0653 37.2562C37.034 37.2844 37.0028 37.3156 36.9715 37.3469C36.9559 37.3625 36.9403 37.3781 36.9215 37.3938C36.8746 37.4375 36.8278 37.4844 36.7809 37.5281L36.7715 37.5375L36.6215 37.6875L36.6184 37.6906C36.5153 37.7938 36.4153 37.9 36.3153 38.0062L36.3121 38.0094C36.2621 38.0625 36.2153 38.1156 36.1684 38.1687L36.1653 38.1719C36.1215 38.2188 36.0778 38.2687 36.0371 38.3187C36.0246 38.3344 36.0121 38.3469 35.9996 38.3625C35.9653 38.4 35.934 38.4406 35.8996 38.4781C35.8934 38.4875 35.884 38.4938 35.8778 38.5031C33.8371 40.9344 32.6059 44.0719 32.6059 47.5C32.6059 50.9281 34.106 53.8118 35.8809 56.5C35.7777 52.0719 37.106 55.725 34.606 52L35.606 55L35.8809 56.5C35.8934 56.5156 36.0246 56.6719 36.0371 56.6875L36.1653 56.8344C36.1653 56.8375 36.1684 56.8375 36.1684 56.8406C36.2153 56.8938 36.2621 56.9469 36.3121 56.9969L36.3153 57C36.4153 57.1063 36.5153 57.2125 36.6153 57.3156L36.6184 57.3188C36.6684 57.3687 36.7153 57.4188 36.7653 57.4656L37.4715 58C37.4715 58 29.1059 58 32.6059 60.5C32.6059 60.5 36.8121 56.9969 47.1059 61.5C60.6058 56.8344 60.109 61.3906 62.6059 59.0781C63.6012 58.1562 56.3259 57.5774 56.4278 57.475L56.4371 57.4656C56.4871 57.4156 56.5371 57.3687 56.584 57.3188L56.5871 57.3156C56.6903 57.2125 56.7903 57.1063 56.8871 57L56.8903 56.9969C56.9371 56.9438 56.9871 56.8938 57.034 56.8406C57.034 56.8375 57.0371 56.8375 57.0371 56.8344C57.0809 56.7875 57.1246 56.7375 57.1653 56.6875C57.1778 56.6719 57.1903 56.6594 57.2028 56.6437C57.2381 56.6061 57.2725 56.5675 57.3059 56.5281ZM57.434 52.0719C57.0028 53.0906 56.434 54.0344 55.7403 54.8906C54.959 54.2154 54.1047 53.6294 53.1934 53.1437C53.5559 51.6781 53.7809 50.0688 53.8403 48.375H58.3246C58.2309 49.6531 57.9309 50.8937 57.434 52.0719ZM58.3246 46.625H53.8403C53.7809 44.9312 53.5559 43.3219 53.1934 41.8562C54.109 41.3687 54.9621 40.7812 55.7403 40.1094C57.2483 41.9655 58.1504 44.2398 58.3246 46.625ZM51.1778 36.6719C52.4184 37.1969 53.5465 37.9219 54.5403 38.8344C53.963 39.3259 53.3416 39.7632 52.684 40.1406C52.1934 38.7344 51.5653 37.5125 50.834 36.5344C50.9496 36.5781 51.0653 36.625 51.1778 36.6719ZM48.3465 58.5656C48.059 58.7906 47.7715 58.9625 47.4809 59.0781V53.2812C48.7209 53.3678 49.9402 53.6439 51.0965 54.1C50.8371 54.8687 50.5371 55.5781 50.1903 56.2188C49.6465 57.2313 49.009 58.0406 48.3465 58.5656ZM50.1903 38.7812C50.534 39.425 50.8371 40.1344 51.0965 40.9C49.9402 41.3561 48.7209 41.6322 47.4809 41.7188V35.925C47.7684 36.0406 48.059 36.2094 48.3465 36.4375C49.009 36.9594 49.6465 37.7688 50.1903 38.7812ZM47.4809 51.5281V48.375H52.0903C52.0403 49.7563 51.8684 51.0969 51.5809 52.3687L51.5715 52.4062C50.2601 51.9089 48.8809 51.6129 47.4809 51.5281ZM47.4809 46.625V43.4719C48.9121 43.3844 50.2871 43.0813 51.5715 42.5938L51.5809 42.6313C51.8684 43.9031 52.0403 45.2406 52.0903 46.625H47.4809ZM45.7309 48.375V51.5281C44.2996 51.6156 42.9246 51.9188 41.6403 52.4062L41.6309 52.3687C41.3434 51.0969 41.1715 49.7594 41.1215 48.375H45.7309ZM41.1215 46.625C41.1715 45.2437 41.3434 43.9031 41.6309 42.6313L41.6403 42.5938C42.9246 43.0813 44.2965 43.3844 45.7309 43.4719V46.625H41.1215ZM45.7309 53.2812V59.075C45.4434 58.9594 45.1528 58.7906 44.8653 58.5625C44.2028 58.0406 43.5621 57.2281 43.0184 56.2156C42.6746 55.5719 42.3715 54.8625 42.1121 54.0969C43.2746 53.6406 44.484 53.3687 45.7309 53.2812ZM45.7309 41.7188C44.4909 41.6322 43.2715 41.3561 42.1153 40.9C42.3746 40.1312 42.6746 39.4219 43.0215 38.7812C43.5653 37.7688 44.2028 36.9562 44.8684 36.4344C45.1559 36.2094 45.4434 36.0375 45.734 35.9219V41.7188H45.7309ZM42.034 36.6719C42.1496 36.625 42.2621 36.5781 42.3778 36.5344C41.6465 37.5125 41.0184 38.7344 40.5278 40.1406C39.8715 39.7656 39.2496 39.3281 38.6715 38.8344C39.6653 37.9219 40.7934 37.1969 42.034 36.6719ZM35.7778 42.9281C36.209 41.9094 36.7778 40.9656 37.4715 40.1094C38.2496 40.7812 39.1028 41.3687 40.0184 41.8562C39.6559 43.3219 39.4309 44.9312 39.3715 46.625H34.8871C34.9809 45.3469 35.2809 44.1063 35.7778 42.9281ZM34.8871 48.375H39.3715C39.4309 50.0688 39.6559 51.6781 40.0184 53.1437C39.1071 53.6294 38.2528 54.2154 37.4715 54.8906C35.9635 53.0345 35.0614 50.7602 34.8871 48.375ZM42.034 58.3281C40.7934 57.8031 39.6653 57.0781 38.6715 56.1656C39.2496 55.6719 39.8715 55.2375 40.5278 54.8594C41.0184 56.2656 41.6465 57.4875 42.3778 58.4656C42.2621 58.4219 42.1465 58.375 42.034 58.3281ZM51.1778 58.3281C51.0621 58.375 50.9496 58.4219 50.834 58.4656C51.5653 57.4875 52.1934 56.2656 52.684 54.8594C53.3403 55.2344 53.9621 55.6719 54.5403 56.1656C53.552 57.0743 52.4145 57.8059 51.1778 58.3281Z"/>
</mask>
<path d="M57.3059 56.5281C57.3121 56.5188 57.3215 56.5094 57.3278 56.5C58.3521 55.2818 59.1721 53.8875 59.7358 52.3687C60.2986 50.8527 60.6059 49.2126 60.6059 47.5C60.6059 44.0719 59.3746 40.9344 57.3309 38.5C57.3246 38.4906 57.3153 38.4844 57.309 38.475C57.2746 38.4344 57.2434 38.3969 57.209 38.3594C57.1965 38.3438 57.184 38.3313 57.1715 38.3156L57.0434 38.1687L57.0403 38.1656C56.9934 38.1125 56.9434 38.0594 56.8965 38.0062L56.8934 38.0031C56.7934 37.8969 56.6934 37.7906 56.5903 37.6875L56.5871 37.6844L56.4371 37.5344L56.4278 37.525C56.3809 37.4781 56.334 37.4344 56.2871 37.3906C56.2715 37.375 56.2559 37.3594 56.2371 37.3438C56.2059 37.3125 56.1746 37.2844 56.1434 37.2562C56.134 37.2469 56.1215 37.2375 56.1121 37.225C53.6184 34.9125 50.2778 33.5 46.6059 33.5C42.934 33.5 39.5934 34.9125 37.0965 37.225C37.0871 37.2344 37.0746 37.2437 37.0653 37.2562C37.034 37.2844 37.0028 37.3156 36.9715 37.3469C36.9559 37.3625 36.9403 37.3781 36.9215 37.3938C36.8746 37.4375 36.8278 37.4844 36.7809 37.5281L36.7715 37.5375L36.6215 37.6875L36.6184 37.6906C36.5153 37.7938 36.4153 37.9 36.3153 38.0062L36.3121 38.0094C36.2621 38.0625 36.2153 38.1156 36.1684 38.1687L36.1653 38.1719C36.1215 38.2188 36.0778 38.2687 36.0371 38.3187C36.0246 38.3344 36.0121 38.3469 35.9996 38.3625C35.9653 38.4 35.934 38.4406 35.8996 38.4781C35.8934 38.4875 35.884 38.4938 35.8778 38.5031C33.8371 40.9344 32.6059 44.0719 32.6059 47.5C32.6059 50.9281 34.106 53.8118 35.8809 56.5C35.7777 52.0719 37.106 55.725 34.606 52L35.606 55L35.8809 56.5C35.8934 56.5156 36.0246 56.6719 36.0371 56.6875L36.1653 56.8344C36.1653 56.8375 36.1684 56.8375 36.1684 56.8406C36.2153 56.8938 36.2621 56.9469 36.3121 56.9969L36.3153 57C36.4153 57.1063 36.5153 57.2125 36.6153 57.3156L36.6184 57.3188C36.6684 57.3687 36.7153 57.4188 36.7653 57.4656L37.4715 58C37.4715 58 29.1059 58 32.6059 60.5C32.6059 60.5 36.8121 56.9969 47.1059 61.5C60.6058 56.8344 60.109 61.3906 62.6059 59.0781C63.6012 58.1562 56.3259 57.5774 56.4278 57.475L56.4371 57.4656C56.4871 57.4156 56.5371 57.3687 56.584 57.3188L56.5871 57.3156C56.6903 57.2125 56.7903 57.1063 56.8871 57L56.8903 56.9969C56.9371 56.9438 56.9871 56.8938 57.034 56.8406C57.034 56.8375 57.0371 56.8375 57.0371 56.8344C57.0809 56.7875 57.1246 56.7375 57.1653 56.6875C57.1778 56.6719 57.1903 56.6594 57.2028 56.6437C57.2381 56.6061 57.2725 56.5675 57.3059 56.5281ZM57.434 52.0719C57.0028 53.0906 56.434 54.0344 55.7403 54.8906C54.959 54.2154 54.1047 53.6294 53.1934 53.1437C53.5559 51.6781 53.7809 50.0688 53.8403 48.375H58.3246C58.2309 49.6531 57.9309 50.8937 57.434 52.0719ZM58.3246 46.625H53.8403C53.7809 44.9312 53.5559 43.3219 53.1934 41.8562C54.109 41.3687 54.9621 40.7812 55.7403 40.1094C57.2483 41.9655 58.1504 44.2398 58.3246 46.625ZM51.1778 36.6719C52.4184 37.1969 53.5465 37.9219 54.5403 38.8344C53.963 39.3259 53.3416 39.7632 52.684 40.1406C52.1934 38.7344 51.5653 37.5125 50.834 36.5344C50.9496 36.5781 51.0653 36.625 51.1778 36.6719ZM48.3465 58.5656C48.059 58.7906 47.7715 58.9625 47.4809 59.0781V53.2812C48.7209 53.3678 49.9402 53.6439 51.0965 54.1C50.8371 54.8687 50.5371 55.5781 50.1903 56.2188C49.6465 57.2313 49.009 58.0406 48.3465 58.5656ZM50.1903 38.7812C50.534 39.425 50.8371 40.1344 51.0965 40.9C49.9402 41.3561 48.7209 41.6322 47.4809 41.7188V35.925C47.7684 36.0406 48.059 36.2094 48.3465 36.4375C49.009 36.9594 49.6465 37.7688 50.1903 38.7812ZM47.4809 51.5281V48.375H52.0903C52.0403 49.7563 51.8684 51.0969 51.5809 52.3687L51.5715 52.4062C50.2601 51.9089 48.8809 51.6129 47.4809 51.5281ZM47.4809 46.625V43.4719C48.9121 43.3844 50.2871 43.0813 51.5715 42.5938L51.5809 42.6313C51.8684 43.9031 52.0403 45.2406 52.0903 46.625H47.4809ZM45.7309 48.375V51.5281C44.2996 51.6156 42.9246 51.9188 41.6403 52.4062L41.6309 52.3687C41.3434 51.0969 41.1715 49.7594 41.1215 48.375H45.7309ZM41.1215 46.625C41.1715 45.2437 41.3434 43.9031 41.6309 42.6313L41.6403 42.5938C42.9246 43.0813 44.2965 43.3844 45.7309 43.4719V46.625H41.1215ZM45.7309 53.2812V59.075C45.4434 58.9594 45.1528 58.7906 44.8653 58.5625C44.2028 58.0406 43.5621 57.2281 43.0184 56.2156C42.6746 55.5719 42.3715 54.8625 42.1121 54.0969C43.2746 53.6406 44.484 53.3687 45.7309 53.2812ZM45.7309 41.7188C44.4909 41.6322 43.2715 41.3561 42.1153 40.9C42.3746 40.1312 42.6746 39.4219 43.0215 38.7812C43.5653 37.7688 44.2028 36.9562 44.8684 36.4344C45.1559 36.2094 45.4434 36.0375 45.734 35.9219V41.7188H45.7309ZM42.034 36.6719C42.1496 36.625 42.2621 36.5781 42.3778 36.5344C41.6465 37.5125 41.0184 38.7344 40.5278 40.1406C39.8715 39.7656 39.2496 39.3281 38.6715 38.8344C39.6653 37.9219 40.7934 37.1969 42.034 36.6719ZM35.7778 42.9281C36.209 41.9094 36.7778 40.9656 37.4715 40.1094C38.2496 40.7812 39.1028 41.3687 40.0184 41.8562C39.6559 43.3219 39.4309 44.9312 39.3715 46.625H34.8871C34.9809 45.3469 35.2809 44.1063 35.7778 42.9281ZM34.8871 48.375H39.3715C39.4309 50.0688 39.6559 51.6781 40.0184 53.1437C39.1071 53.6294 38.2528 54.2154 37.4715 54.8906C35.9635 53.0345 35.0614 50.7602 34.8871 48.375ZM42.034 58.3281C40.7934 57.8031 39.6653 57.0781 38.6715 56.1656C39.2496 55.6719 39.8715 55.2375 40.5278 54.8594C41.0184 56.2656 41.6465 57.4875 42.3778 58.4656C42.2621 58.4219 42.1465 58.375 42.034 58.3281ZM51.1778 58.3281C51.0621 58.375 50.9496 58.4219 50.834 58.4656C51.5653 57.4875 52.1934 56.2656 52.684 54.8594C53.3403 55.2344 53.9621 55.6719 54.5403 56.1656C53.552 57.0743 52.4145 57.8059 51.1778 58.3281Z" fill="#003FEB"/>
<path d="M57.3059 56.5281L57.3299 56.5485L57.3319 56.5455L57.3059 56.5281ZM57.3278 56.5L57.3037 56.4798L57.3018 56.4827L57.3278 56.5ZM57.3309 38.5L57.3047 38.5174L57.3069 38.5201L57.3309 38.5ZM57.309 38.475L57.3352 38.4576L57.3329 38.4548L57.309 38.475ZM57.209 38.3594L57.1845 38.3789L57.186 38.3805L57.209 38.3594ZM57.1715 38.3156L57.1959 38.2961L57.1951 38.2951L57.1715 38.3156ZM57.0434 38.1687L57.067 38.1482L57.0655 38.1467L57.0434 38.1687ZM57.0403 38.1656L57.0168 38.1863L57.0182 38.1877L57.0403 38.1656ZM56.8965 38.0062L56.92 37.9855L56.9186 37.9842L56.8965 38.0062ZM56.8934 38.0031L56.8706 38.0246L56.8713 38.0252L56.8934 38.0031ZM56.5903 37.6875L56.5682 37.7096L56.5682 37.7096L56.5903 37.6875ZM56.5871 37.6844L56.6092 37.6623L56.6092 37.6623L56.5871 37.6844ZM56.4371 37.5344L56.415 37.5565L56.415 37.5565L56.4371 37.5344ZM56.4278 37.525L56.4499 37.5029L56.4499 37.5029L56.4278 37.525ZM56.2871 37.3906L56.265 37.4127L56.2658 37.4135L56.2871 37.3906ZM56.2371 37.3438L56.2149 37.3659L56.2171 37.3678L56.2371 37.3438ZM56.1434 37.2562L56.1213 37.2784L56.1225 37.2795L56.1434 37.2562ZM56.1121 37.225L56.1375 37.2059L56.1334 37.2021L56.1121 37.225ZM37.0965 37.225L37.0753 37.2021L37.0744 37.2029L37.0965 37.225ZM37.0653 37.2562L37.0866 37.2799L37.0903 37.275L37.0653 37.2562ZM36.9215 37.3938L36.9015 37.3697L36.9002 37.3709L36.9215 37.3938ZM36.7809 37.5281L36.7595 37.5053L36.7588 37.506L36.7809 37.5281ZM36.7715 37.5375L36.7494 37.5154L36.7494 37.5154L36.7715 37.5375ZM36.6215 37.6875L36.5994 37.6654L36.5994 37.6654L36.6215 37.6875ZM36.6184 37.6906L36.6405 37.7127L36.6405 37.7127L36.6184 37.6906ZM36.3153 38.0062L36.3374 38.0284L36.338 38.0277L36.3153 38.0062ZM36.3121 38.0094L36.29 37.9873L36.2894 37.988L36.3121 38.0094ZM36.1684 38.1687L36.1905 38.1909L36.1918 38.1894L36.1684 38.1687ZM36.1653 38.1719L36.1431 38.1498L36.1424 38.1506L36.1653 38.1719ZM36.0371 38.3187L36.0129 38.299L36.0127 38.2992L36.0371 38.3187ZM35.9996 38.3625L36.0227 38.3837L36.024 38.382L35.9996 38.3625ZM35.8996 38.4781L35.8763 38.4568L35.8736 38.4608L35.8996 38.4781ZM35.8778 38.5031L35.9018 38.5233L35.9038 38.5205L35.8778 38.5031ZM35.8809 56.5L35.8547 56.5173L35.8565 56.5195L35.8809 56.5ZM34.606 52L34.6319 51.9826L34.5763 52.0099L34.606 52ZM36.0371 56.6875L36.0127 56.707L36.0136 56.708L36.0371 56.6875ZM36.1653 56.8344H36.1965V56.8227L36.1888 56.8138L36.1653 56.8344ZM36.1684 56.8406H36.1371V56.8524L36.1449 56.8613L36.1684 56.8406ZM36.3153 57L36.338 56.9786L36.3374 56.9779L36.3153 57ZM36.6153 57.3156L36.5928 57.3374L36.5932 57.3377L36.6153 57.3156ZM36.6184 57.3188L36.5963 57.3408L36.5963 57.3408L36.6184 57.3188ZM36.7653 57.4656L36.7438 57.4886L36.7464 57.4905L36.7653 57.4656ZM37.4715 58V58.0312H37.5646L37.4904 57.9751L37.4715 58ZM32.6059 60.5L32.5877 60.5254L32.6073 60.5394L32.6259 60.524L32.6059 60.5ZM47.1059 61.5L47.0933 61.5286L47.1045 61.5335L47.1161 61.5295L47.1059 61.5ZM62.6059 59.0781L62.5846 59.0552L62.6059 59.0781ZM56.4278 57.475L56.4057 57.4529L56.4056 57.453L56.4278 57.475ZM56.584 57.3188L56.5619 57.2966L56.5612 57.2974L56.584 57.3188ZM56.8871 57L56.865 56.9779L56.864 56.9789L56.8871 57ZM56.8903 56.9969L56.9124 57.019L56.9137 57.0176L56.8903 56.9969ZM57.034 56.8406L57.0574 56.8613L57.0653 56.8524V56.8406H57.034ZM57.0371 56.8344L57.0143 56.8131L57.0059 56.8221V56.8344H57.0371ZM57.1653 56.6875L57.1895 56.7072L57.1897 56.707L57.1653 56.6875ZM57.2028 56.6437L57.1799 56.6223L57.1784 56.6242L57.2028 56.6437ZM57.434 52.0719L57.4628 52.0841L57.4628 52.084L57.434 52.0719ZM55.7403 54.8906L55.7198 54.9143L55.7442 54.9354L55.7645 54.9103L55.7403 54.8906ZM53.1934 53.1437L53.163 53.1362L53.1572 53.1599L53.1787 53.1713L53.1934 53.1437ZM53.8403 48.375V48.3438H53.8101L53.809 48.3739L53.8403 48.375ZM58.3246 48.375L58.3558 48.3773L58.3583 48.3438H58.3246V48.375ZM58.3246 46.625V46.6562H58.3582L58.3558 46.6227L58.3246 46.625ZM53.8403 46.625L53.809 46.6261L53.8101 46.6562H53.8403V46.625ZM53.1934 41.8562L53.1787 41.8287L53.1572 41.8401L53.163 41.8638L53.1934 41.8562ZM55.7403 40.1094L55.7645 40.0897L55.7442 40.0647L55.7198 40.0857L55.7403 40.1094ZM51.1778 36.6719L51.1899 36.6431L51.1898 36.643L51.1778 36.6719ZM54.5403 38.8344L54.5605 38.8582L54.5874 38.8353L54.5614 38.8114L54.5403 38.8344ZM52.684 40.1406L52.6545 40.1509L52.6669 40.1865L52.6996 40.1677L52.684 40.1406ZM50.834 36.5344L50.8451 36.5051L50.7448 36.4672L50.809 36.5531L50.834 36.5344ZM48.3465 58.5656L48.3658 58.5902L48.3659 58.5901L48.3465 58.5656ZM47.4809 59.0781H47.4496V59.1242L47.4924 59.1072L47.4809 59.0781ZM47.4809 53.2812L47.4831 53.2501L47.4496 53.2477V53.2812H47.4809ZM51.0965 54.1L51.1261 54.11L51.1356 54.0818L51.108 54.0709L51.0965 54.1ZM50.1903 56.2188L50.1628 56.2039L50.1627 56.204L50.1903 56.2188ZM50.1903 38.7812L50.2178 38.7665L50.2178 38.7665L50.1903 38.7812ZM51.0965 40.9L51.108 40.9291L51.1357 40.9182L51.1261 40.89L51.0965 40.9ZM47.4809 41.7188H47.4496V41.7523L47.4831 41.7499L47.4809 41.7188ZM47.4809 35.925L47.4925 35.896L47.4496 35.8787V35.925H47.4809ZM48.3465 36.4375L48.3271 36.462L48.3272 36.462L48.3465 36.4375ZM47.4809 51.5281H47.4496V51.5575L47.479 51.5593L47.4809 51.5281ZM47.4809 48.375V48.3438H47.4496V48.375H47.4809ZM52.0903 48.375L52.1215 48.3761L52.1227 48.3438H52.0903V48.375ZM51.5809 52.3687L51.6112 52.3763L51.6114 52.3756L51.5809 52.3687ZM51.5715 52.4062L51.5604 52.4355L51.5933 52.4479L51.6018 52.4138L51.5715 52.4062ZM47.4809 46.625H47.4496V46.6562H47.4809V46.625ZM47.4809 43.4719L47.479 43.4407L47.4496 43.4425V43.4719H47.4809ZM51.5715 42.5938L51.6018 42.5862L51.5933 42.5521L51.5604 42.5645L51.5715 42.5938ZM51.5809 42.6313L51.6114 42.6244L51.6112 42.6237L51.5809 42.6313ZM52.0903 46.625V46.6562H52.1227L52.1215 46.6239L52.0903 46.625ZM45.7309 48.375H45.7621V48.3438H45.7309V48.375ZM45.7309 51.5281L45.7328 51.5593L45.7621 51.5575V51.5281H45.7309ZM41.6403 52.4062L41.6099 52.4138L41.6185 52.4479L41.6513 52.4355L41.6403 52.4062ZM41.6309 52.3687L41.6004 52.3756L41.6006 52.3763L41.6309 52.3687ZM41.1215 48.375V48.3438H41.0891L41.0903 48.3761L41.1215 48.375ZM41.1215 46.625L41.0903 46.6239L41.0891 46.6562H41.1215V46.625ZM41.6309 42.6313L41.6006 42.6237L41.6004 42.6244L41.6309 42.6313ZM41.6403 42.5938L41.6513 42.5645L41.6185 42.5521L41.6099 42.5862L41.6403 42.5938ZM45.7309 43.4719H45.7621V43.4425L45.7328 43.4407L45.7309 43.4719ZM45.7309 46.625V46.6562H45.7621V46.625H45.7309ZM45.7309 53.2812H45.7621V53.2477L45.7287 53.2501L45.7309 53.2812ZM45.7309 59.075L45.7192 59.104L45.7621 59.1213V59.075H45.7309ZM44.8653 58.5625L44.8847 58.538L44.8846 58.538L44.8653 58.5625ZM43.0184 56.2156L42.9908 56.2303L42.9908 56.2304L43.0184 56.2156ZM42.1121 54.0969L42.1007 54.0678L42.073 54.0787L42.0825 54.1069L42.1121 54.0969ZM45.7309 41.7188L45.7287 41.75H45.7309V41.7188ZM42.1153 40.9L42.0856 40.89L42.0761 40.9182L42.1038 40.9291L42.1153 40.9ZM43.0215 38.7812L43.049 38.7961L43.049 38.796L43.0215 38.7812ZM44.8684 36.4344L44.8491 36.4098L44.8491 36.4098L44.8684 36.4344ZM45.734 35.9219H45.7653V35.8758L45.7225 35.8928L45.734 35.9219ZM45.734 41.7188V41.75H45.7653V41.7188H45.734ZM42.034 36.6719L42.0223 36.6429L42.0218 36.6431L42.034 36.6719ZM42.3778 36.5344L42.4028 36.5531L42.467 36.4672L42.3667 36.5051L42.3778 36.5344ZM40.5278 40.1406L40.5122 40.1678L40.5449 40.1864L40.5573 40.1509L40.5278 40.1406ZM38.6715 38.8344L38.6504 38.8114L38.6244 38.8352L38.6512 38.8581L38.6715 38.8344ZM35.7778 42.9281L35.749 42.9159L35.749 42.916L35.7778 42.9281ZM37.4715 40.1094L37.4919 40.0857L37.4675 40.0646L37.4472 40.0897L37.4715 40.1094ZM40.0184 41.8562L40.0487 41.8638L40.0546 41.8401L40.0331 41.8287L40.0184 41.8562ZM39.3715 46.625V46.6562H39.4017L39.4027 46.6261L39.3715 46.625ZM34.8871 46.625L34.856 46.6227L34.8535 46.6562H34.8871V46.625ZM34.8871 48.375V48.3438H34.8535L34.856 48.3773L34.8871 48.375ZM39.3715 48.375L39.4027 48.3739L39.4017 48.3438H39.3715V48.375ZM40.0184 53.1437L40.0331 53.1713L40.0546 53.1599L40.0487 53.1362L40.0184 53.1437ZM37.4715 54.8906L37.4472 54.9103L37.4676 54.9353L37.4919 54.9143L37.4715 54.8906ZM42.034 58.3281L42.0218 58.3569L42.022 58.357L42.034 58.3281ZM38.6715 56.1656L38.6512 56.1419L38.6244 56.1648L38.6504 56.1886L38.6715 56.1656ZM40.5278 54.8594L40.5573 54.8491L40.5448 54.8135L40.5122 54.8323L40.5278 54.8594ZM42.3778 58.4656L42.3667 58.4949L42.467 58.5328L42.4028 58.4469L42.3778 58.4656ZM51.1778 58.3281L51.1895 58.3571L51.1899 58.3569L51.1778 58.3281ZM50.834 58.4656L50.809 58.4469L50.7448 58.5328L50.8451 58.4949L50.834 58.4656ZM52.684 54.8594L52.6995 54.8322L52.6669 54.8136L52.6545 54.8491L52.684 54.8594ZM54.5403 56.1656L54.5614 56.1886L54.5874 56.1648L54.5606 56.1419L54.5403 56.1656ZM35.606 55L35.637 54.9943L35.6356 54.9901L35.606 55ZM59.7358 52.3687L59.7651 52.3796L59.7358 52.3687ZM57.3059 56.5281L57.3319 56.5455C57.3339 56.5424 57.3367 56.539 57.3408 56.5341C57.3445 56.5297 57.3495 56.5237 57.3538 56.5173L57.3278 56.5L57.3018 56.4827C57.2997 56.4857 57.297 56.4891 57.2928 56.4941C57.2891 56.4985 57.2841 56.5045 57.2799 56.5108L57.3059 56.5281ZM60.6059 47.5H60.6371C60.6371 44.0642 59.4031 40.9197 57.3548 38.4799L57.3309 38.5L57.3069 38.5201C59.3462 40.9491 60.5746 44.0795 60.5746 47.5H60.6059ZM57.3309 38.5L57.3569 38.4827C57.3518 38.475 57.3456 38.469 57.342 38.4654C57.3378 38.4612 57.3361 38.4594 57.335 38.4577L57.309 38.475L57.283 38.4923C57.2881 38.5 57.2943 38.506 57.2978 38.5096C57.3021 38.5138 57.3038 38.5156 57.3049 38.5173L57.3309 38.5ZM57.309 38.475L57.3329 38.4548C57.2987 38.4144 57.2669 38.3763 57.232 38.3383L57.209 38.3594L57.186 38.3805C57.2198 38.4174 57.2506 38.4543 57.2852 38.4952L57.309 38.475ZM57.209 38.3594L57.2334 38.3399C57.2266 38.3313 57.2198 38.3237 57.2136 38.3167C57.2073 38.3096 57.2016 38.3032 57.1959 38.2961L57.1715 38.3156L57.1471 38.3351C57.1539 38.3437 57.1607 38.3513 57.1669 38.3583C57.1732 38.3654 57.1789 38.3718 57.1846 38.3789L57.209 38.3594ZM57.1715 38.3156L57.1951 38.2951L57.0669 38.1482L57.0434 38.1687L57.0198 38.1893L57.148 38.3362L57.1715 38.3156ZM57.0434 38.1687L57.0655 38.1467L57.0624 38.1435L57.0403 38.1656L57.0182 38.1877L57.0213 38.1908L57.0434 38.1687ZM57.0403 38.1656L57.0637 38.1449C57.0401 38.1182 57.0157 38.0914 56.9915 38.0649C56.9672 38.0383 56.9432 38.0119 56.9199 37.9856L56.8965 38.0062L56.8731 38.0269C56.8967 38.0537 56.9211 38.0805 56.9453 38.107C56.9695 38.1336 56.9936 38.16 57.0168 38.1863L57.0403 38.1656ZM56.8965 38.0062L56.9186 37.9842L56.9155 37.981L56.8934 38.0031L56.8713 38.0252L56.8744 38.0283L56.8965 38.0062ZM56.8934 38.0031L56.9161 37.9817C56.8162 37.8755 56.7159 37.7689 56.6124 37.6654L56.5903 37.6875L56.5682 37.7096C56.6709 37.8123 56.7706 37.9182 56.8706 38.0245L56.8934 38.0031ZM56.5903 37.6875L56.6124 37.6654L56.6092 37.6623L56.5871 37.6844L56.565 37.7065L56.5682 37.7096L56.5903 37.6875ZM56.5871 37.6844L56.6092 37.6623L56.4592 37.5123L56.4371 37.5344L56.415 37.5565L56.565 37.7065L56.5871 37.6844ZM56.4371 37.5344L56.4592 37.5123L56.4499 37.5029L56.4278 37.525L56.4057 37.5471L56.415 37.5565L56.4371 37.5344ZM56.4278 37.525L56.4499 37.5029C56.4025 37.4556 56.3553 37.4115 56.3085 37.3678L56.2871 37.3906L56.2658 37.4135C56.3127 37.4573 56.3592 37.5007 56.4057 37.5471L56.4278 37.525ZM56.2871 37.3906L56.3092 37.3685C56.2937 37.353 56.2771 37.3364 56.2571 37.3197L56.2371 37.3438L56.2171 37.3678C56.2346 37.3823 56.2493 37.397 56.265 37.4127L56.2871 37.3906ZM56.2371 37.3438L56.2592 37.3217C56.2273 37.2897 56.1955 37.2611 56.1643 37.233L56.1434 37.2562L56.1225 37.2795C56.1538 37.3077 56.1845 37.3353 56.215 37.3658L56.2371 37.3438ZM56.1434 37.2562L56.1655 37.2342C56.1604 37.229 56.1531 37.2227 56.149 37.2189C56.144 37.2143 56.1402 37.2103 56.1371 37.2062L56.1121 37.225L56.0871 37.2437C56.0935 37.2522 56.1005 37.2592 56.1065 37.2647C56.1133 37.2711 56.117 37.2741 56.1213 37.2783L56.1434 37.2562ZM56.1121 37.225L56.1334 37.2021C53.6341 34.8844 50.2859 33.4688 46.6059 33.4688V33.5V33.5312C50.2696 33.5312 53.6027 34.9406 56.0909 37.2479L56.1121 37.225ZM46.6059 33.5V33.4688C42.9258 33.4688 39.5777 34.8844 37.0753 37.2021L37.0965 37.225L37.1177 37.2479C39.6091 34.9406 42.9422 33.5312 46.6059 33.5312V33.5ZM37.0965 37.225L37.0744 37.2029C37.0702 37.2071 37.0665 37.2102 37.0596 37.2166C37.0537 37.2221 37.0466 37.229 37.0403 37.2375L37.0653 37.2562L37.0903 37.275C37.0933 37.271 37.0972 37.267 37.1021 37.2624C37.1062 37.2586 37.1135 37.2522 37.1186 37.2471L37.0965 37.225ZM37.0653 37.2562L37.0443 37.233C37.0124 37.2618 36.9805 37.2936 36.9494 37.3248L36.9715 37.3469L36.9936 37.369C37.025 37.3376 37.0556 37.307 37.0862 37.2795L37.0653 37.2562ZM36.9715 37.3469L36.9494 37.3248C36.9337 37.3405 36.919 37.3552 36.9015 37.3697L36.9215 37.3938L36.9415 37.4178C36.9615 37.4011 36.9781 37.3845 36.9936 37.369L36.9715 37.3469ZM36.9215 37.3938L36.9002 37.3709C36.8765 37.393 36.8529 37.4158 36.8295 37.4385C36.806 37.4612 36.7828 37.4836 36.7596 37.5053L36.7809 37.5281L36.8022 37.551C36.8259 37.5289 36.8495 37.506 36.8729 37.4834C36.8964 37.4607 36.9196 37.4383 36.9428 37.4166L36.9215 37.3938ZM36.7809 37.5281L36.7588 37.506L36.7494 37.5154L36.7715 37.5375L36.7936 37.5596L36.803 37.5502L36.7809 37.5281ZM36.7715 37.5375L36.7494 37.5154L36.5994 37.6654L36.6215 37.6875L36.6436 37.7096L36.7936 37.5596L36.7715 37.5375ZM36.6215 37.6875L36.5994 37.6654L36.5963 37.6685L36.6184 37.6906L36.6405 37.7127L36.6436 37.7096L36.6215 37.6875ZM36.6184 37.6906L36.5963 37.6685C36.4928 37.772 36.3924 37.8786 36.2925 37.9848L36.3153 38.0062L36.338 38.0277C36.4381 37.9214 36.5377 37.8155 36.6405 37.7127L36.6184 37.6906ZM36.3153 38.0062L36.2932 37.9842L36.29 37.9873L36.3121 38.0094L36.3342 38.0315L36.3374 38.0283L36.3153 38.0062ZM36.3121 38.0094L36.2894 37.988C36.239 38.0415 36.1918 38.095 36.1449 38.1481L36.1684 38.1687L36.1918 38.1894C36.2387 38.1362 36.2853 38.0835 36.3349 38.0308L36.3121 38.0094ZM36.1684 38.1687L36.1463 38.1467L36.1432 38.1498L36.1653 38.1719L36.1874 38.194L36.1905 38.1908L36.1684 38.1687ZM36.1653 38.1719L36.1424 38.1506C36.0982 38.1979 36.054 38.2485 36.0129 38.299L36.0371 38.3187L36.0614 38.3385C36.1015 38.289 36.1448 38.2396 36.1881 38.1932L36.1653 38.1719ZM36.0371 38.3187L36.0127 38.2992C36.0071 38.3063 36.0013 38.3128 35.995 38.3199C35.9888 38.3268 35.9821 38.3344 35.9752 38.343L35.9996 38.3625L36.024 38.382C36.0297 38.3749 36.0354 38.3685 36.0417 38.3614C36.0479 38.3544 36.0547 38.3468 36.0615 38.3383L36.0371 38.3187ZM35.9996 38.3625L35.9766 38.3414C35.9589 38.3607 35.942 38.3808 35.9257 38.4002C35.9092 38.4198 35.8932 38.4388 35.8766 38.457L35.8996 38.4781L35.9227 38.4992C35.9404 38.4799 35.9572 38.4599 35.9736 38.4404C35.99 38.4208 36.006 38.4018 36.0227 38.3836L35.9996 38.3625ZM35.8996 38.4781L35.8736 38.4608C35.8725 38.4625 35.8708 38.4643 35.8666 38.4685C35.863 38.4721 35.8569 38.4781 35.8518 38.4858L35.8778 38.5031L35.9038 38.5205C35.9049 38.5188 35.9065 38.517 35.9108 38.5127C35.9144 38.5092 35.9205 38.5031 35.9256 38.4955L35.8996 38.4781ZM35.8778 38.5031L35.8538 38.483C33.8086 40.9197 32.5746 44.0643 32.5746 47.5H32.6059H32.6371C32.6371 44.0795 33.8656 40.949 35.9017 38.5232L35.8778 38.5031ZM32.6059 47.5H32.5746C32.5746 50.9376 34.079 53.8277 35.8548 56.5172L35.8809 56.5L35.907 56.4828C34.1329 53.796 32.6371 50.9187 32.6371 47.5H32.6059ZM35.8809 56.5L35.9121 56.4993C35.8864 55.3934 35.95 54.7941 36.0203 54.459C36.0554 54.2917 36.0921 54.1904 36.1201 54.1247C36.1344 54.091 36.1459 54.0679 36.1555 54.0468C36.1643 54.0273 36.1722 54.0079 36.1734 53.9883C36.1748 53.9662 36.1677 53.9475 36.1552 53.9293C36.1434 53.9122 36.1256 53.8936 36.1028 53.871C36.0563 53.825 35.9821 53.7554 35.8684 53.6308C35.6411 53.3818 35.2563 52.913 34.6319 51.9826L34.606 52L34.58 52.0174C35.2056 52.9495 35.5923 53.421 35.8223 53.673C35.9373 53.799 36.0131 53.8701 36.0588 53.9154C36.0821 53.9385 36.0958 53.9532 36.1037 53.9647C36.1107 53.9749 36.1113 53.98 36.1111 53.9844C36.1106 53.9912 36.1075 54.001 36.0985 54.0211C36.0902 54.0394 36.0771 54.0661 36.0626 54.1001C36.0329 54.1697 35.995 54.275 35.9591 54.4462C35.8875 54.7879 35.8238 55.3925 35.8496 56.5007L35.8809 56.5ZM35.8809 56.5L35.8565 56.5195C35.863 56.5277 35.8993 56.5711 35.935 56.6138C35.9712 56.657 36.0068 56.6996 36.0127 56.707L36.0371 56.6875L36.0615 56.668C36.055 56.6598 36.0187 56.6164 35.983 56.5737C35.9468 56.5305 35.9112 56.4879 35.9053 56.4805L35.8809 56.5ZM36.0371 56.6875L36.0136 56.708L36.1417 56.8549L36.1653 56.8344L36.1888 56.8138L36.0607 56.667L36.0371 56.6875ZM36.1653 56.8344H36.134C36.134 56.8409 36.1358 56.8471 36.1389 56.8523C36.1403 56.8546 36.1418 56.8564 36.1428 56.8576C36.1437 56.8586 36.1446 56.8595 36.1447 56.8596C36.1455 56.8604 36.1431 56.8582 36.1411 56.8548C36.1385 56.8506 36.1371 56.8456 36.1371 56.8406H36.1684H36.1996C36.1996 56.8341 36.1978 56.8279 36.1947 56.8227C36.1933 56.8204 36.1919 56.8186 36.1908 56.8174C36.1899 56.8164 36.189 56.8155 36.1889 56.8154C36.1881 56.8146 36.1905 56.8168 36.1925 56.8202C36.1951 56.8244 36.1965 56.8294 36.1965 56.8344H36.1653ZM36.1684 56.8406L36.1449 56.8613C36.1917 56.9143 36.2392 56.9682 36.29 57.019L36.3121 56.9969L36.3342 56.9748C36.285 56.9256 36.2388 56.8732 36.1918 56.82L36.1684 56.8406ZM36.3121 56.9969L36.29 57.019L36.2932 57.0221L36.3153 57L36.3374 56.9779L36.3342 56.9748L36.3121 56.9969ZM36.3153 57L36.2925 57.0214C36.3925 57.1276 36.4926 57.2341 36.5928 57.3374L36.6153 57.3156L36.6377 57.2939C36.5379 57.1909 36.438 57.0849 36.338 56.9786L36.3153 57ZM36.6153 57.3156L36.5932 57.3377L36.5963 57.3408L36.6184 57.3188L36.6405 57.2967L36.6374 57.2935L36.6153 57.3156ZM36.6184 57.3188L36.5963 57.3408C36.6453 57.3898 36.6935 57.4411 36.7439 57.4884L36.7653 57.4656L36.7866 57.4428C36.7371 57.3964 36.6915 57.3477 36.6405 57.2967L36.6184 57.3188ZM36.7653 57.4656L36.7464 57.4905L37.4526 58.0249L37.4715 58L37.4904 57.9751L36.7841 57.4407L36.7653 57.4656ZM37.4715 58C37.4715 57.9688 37.4715 57.9688 37.4714 57.9688C37.4713 57.9688 37.4712 57.9688 37.4711 57.9688C37.4708 57.9688 37.4705 57.9688 37.4699 57.9688C37.4689 57.9688 37.4674 57.9688 37.4654 57.9688C37.4613 57.9688 37.4553 57.9688 37.4475 57.9688C37.4317 57.9689 37.4084 57.9691 37.3781 57.9694C37.3176 57.97 37.2293 57.9712 37.1182 57.9736C36.896 57.9785 36.5826 57.9883 36.2174 58.0079C35.4873 58.0469 34.5493 58.1252 33.7204 58.2818C33.3059 58.3601 32.9178 58.4582 32.5961 58.5812C32.2753 58.7038 32.0168 58.8527 31.8655 59.0347C31.7895 59.1262 31.7401 59.2266 31.7243 59.3365C31.7084 59.4464 31.7264 59.5634 31.7815 59.6875C31.8911 59.9345 32.1488 60.2119 32.5877 60.5254L32.6059 60.5L32.624 60.4746C32.188 60.1631 31.9414 59.8937 31.8386 59.6621C31.7875 59.547 31.7722 59.4418 31.7861 59.3454C31.8001 59.249 31.8436 59.159 31.9136 59.0747C32.0545 58.9051 32.3008 58.761 32.6185 58.6395C32.9353 58.5184 33.3195 58.4212 33.732 58.3432C34.5569 58.1873 35.4917 58.1093 36.2207 58.0703C36.5851 58.0508 36.8979 58.041 37.1196 58.0361C37.2304 58.0337 37.3184 58.0325 37.3787 58.0319C37.4089 58.0316 37.4321 58.0314 37.4478 58.0313C37.4556 58.0313 37.4615 58.0313 37.4655 58.0313C37.4675 58.0313 37.469 58.0313 37.47 58.0313C37.4705 58.0312 37.4709 58.0312 37.4711 58.0312C37.4713 58.0312 37.4714 58.0312 37.4714 58.0312C37.4715 58.0312 37.4715 58.0312 37.4715 58ZM32.6059 60.5C32.6259 60.524 32.6259 60.524 32.6259 60.524C32.6259 60.524 32.6259 60.524 32.626 60.5239C32.6261 60.5238 32.6262 60.5237 32.6265 60.5235C32.6269 60.5231 32.6276 60.5226 32.6286 60.5218C32.6306 60.5202 32.6335 60.5178 32.6375 60.5147C32.6456 60.5084 32.6578 60.499 32.6742 60.4869C32.707 60.4627 32.7566 60.4277 32.8236 60.3845C32.9576 60.2983 33.1609 60.1797 33.4371 60.0513C33.9895 59.7946 34.834 59.4983 35.9999 59.3423C38.3315 59.0303 41.9507 59.2789 47.0933 61.5286L47.1059 61.5L47.1184 61.4714C41.9673 59.218 38.3365 58.9666 35.9916 59.2804C34.8192 59.4372 33.9687 59.7353 33.4108 59.9947C33.1318 60.1243 32.9261 60.2443 32.7898 60.332C32.7217 60.3759 32.6709 60.4117 32.6371 60.4366C32.6202 60.4491 32.6075 60.4588 32.599 60.4655C32.5947 60.4688 32.5915 60.4714 32.5893 60.4732C32.5882 60.4741 32.5874 60.4747 32.5868 60.4752C32.5865 60.4754 32.5863 60.4756 32.5862 60.4758C32.5861 60.4758 32.586 60.4759 32.586 60.4759C32.5859 60.476 32.5859 60.476 32.6059 60.5ZM47.1059 61.5L47.1161 61.5295C53.8633 59.1977 57.1088 59.1717 58.9776 59.4376C59.4452 59.5041 59.827 59.5889 60.1572 59.661C60.4868 59.7329 60.7666 59.7925 61.0273 59.8072C61.2889 59.822 61.532 59.7916 61.7888 59.6836C62.0451 59.5758 62.3134 59.3915 62.6271 59.1011L62.6059 59.0781L62.5846 59.0552C62.2741 59.3428 62.0118 59.522 61.7646 59.626C61.5179 59.7297 61.2846 59.7591 61.0308 59.7448C60.776 59.7305 60.5012 59.6721 60.1705 59.5999C59.8405 59.5279 59.4566 59.4426 58.9864 59.3757C57.1044 59.108 53.8484 59.1367 47.0957 61.4705L47.1059 61.5ZM62.6059 59.0781L62.6271 59.1011C62.6927 59.0403 62.7289 58.9766 62.7306 58.9101C62.7323 58.8436 62.6993 58.7823 62.6442 58.7267C62.5351 58.6169 62.3267 58.5164 62.0563 58.4236C61.513 58.2371 60.6978 58.0748 59.8569 57.9384C59.0154 57.8019 58.1462 57.6911 57.494 57.608C57.1678 57.5665 56.8962 57.5319 56.7093 57.5046C56.6158 57.4908 56.5442 57.479 56.4978 57.4692C56.4742 57.4642 56.4588 57.46 56.4505 57.4568C56.4455 57.4549 56.4469 57.4547 56.4497 57.4574C56.4513 57.4588 56.4567 57.4643 56.4578 57.474C56.459 57.4852 56.4537 57.4933 56.4499 57.497L56.4278 57.475L56.4056 57.453C56.4003 57.4583 56.3942 57.4681 56.3957 57.481C56.397 57.4924 56.4034 57.4997 56.4069 57.5029C56.4137 57.5093 56.4224 57.513 56.4281 57.5152C56.4414 57.5202 56.4609 57.5252 56.4848 57.5303C56.5333 57.5406 56.6066 57.5527 56.7003 57.5664C56.8879 57.5939 57.1602 57.6285 57.4861 57.67C58.1384 57.7531 59.0066 57.8638 59.8469 58.0001C60.6877 58.1365 61.4982 58.2981 62.036 58.4827C62.3061 58.5754 62.5019 58.6721 62.5998 58.7708C62.6482 58.8195 62.6693 58.8653 62.6682 58.9085C62.667 58.9518 62.6434 59.0007 62.5846 59.0552L62.6059 59.0781ZM56.4278 57.475L56.4499 57.4971L56.4592 57.4877L56.4371 57.4656L56.415 57.4435L56.4057 57.4529L56.4278 57.475ZM56.4371 57.4656L56.4592 57.4877C56.5082 57.4387 56.5595 57.3906 56.6068 57.3401L56.584 57.3188L56.5612 57.2974C56.5147 57.3469 56.466 57.3925 56.415 57.4435L56.4371 57.4656ZM56.584 57.3188L56.6061 57.3408L56.6092 57.3377L56.5871 57.3156L56.565 57.2935L56.5619 57.2967L56.584 57.3188ZM56.5871 57.3156L56.6092 57.3377C56.7128 57.2342 56.8131 57.1275 56.9102 57.0211L56.8871 57L56.864 56.9789C56.7674 57.085 56.6677 57.1908 56.565 57.2935L56.5871 57.3156ZM56.8871 57L56.9092 57.0221L56.9124 57.019L56.8903 56.9969L56.8682 56.9748L56.865 56.9779L56.8871 57ZM56.8903 56.9969L56.9137 57.0176C56.9367 56.9914 56.9606 56.966 56.9849 56.9401C57.0091 56.9144 57.0336 56.8883 57.0574 56.8613L57.034 56.8406L57.0106 56.82C56.9875 56.8461 56.9636 56.8715 56.9394 56.8974C56.9152 56.9231 56.8906 56.9492 56.8668 56.9762L56.8903 56.9969ZM57.034 56.8406H57.0653C57.0653 56.8456 57.0639 56.8506 57.0613 56.8548C57.0593 56.8582 57.0569 56.8604 57.0577 56.8596C57.0578 56.8595 57.0586 56.8586 57.0596 56.8576C57.0606 56.8564 57.062 56.8546 57.0634 56.8523C57.0666 56.8471 57.0684 56.8409 57.0684 56.8344H57.0371H57.0059C57.0059 56.8294 57.0073 56.8244 57.0098 56.8202C57.0118 56.8168 57.0143 56.8146 57.0135 56.8154C57.0134 56.8155 57.0125 56.8164 57.0116 56.8174C57.0105 56.8186 57.0091 56.8204 57.0077 56.8227C57.0046 56.8279 57.0028 56.8341 57.0028 56.8406H57.034ZM57.0371 56.8344L57.06 56.8557C57.1042 56.8083 57.1484 56.7578 57.1895 56.7072L57.1653 56.6875L57.141 56.6678C57.1009 56.7172 57.0576 56.7667 57.0143 56.8131L57.0371 56.8344ZM57.1653 56.6875L57.1897 56.707C57.1953 56.6999 57.201 56.6935 57.2074 56.6864C57.2135 56.6794 57.2203 56.6718 57.2272 56.6633L57.2028 56.6437L57.1784 56.6242C57.1727 56.6313 57.167 56.6378 57.1606 56.6449C57.1545 56.6518 57.1477 56.6594 57.1409 56.668L57.1653 56.6875ZM57.2028 56.6437L57.2255 56.6651C57.2612 56.6271 57.296 56.5881 57.3297 56.5483L57.3059 56.5281L57.282 56.5079C57.249 56.5469 57.2149 56.5851 57.18 56.6224L57.2028 56.6437ZM57.434 52.0719L57.4052 52.0597C56.9751 53.0757 56.4079 54.017 55.716 54.871L55.7403 54.8906L55.7645 54.9103C56.4601 54.0518 57.0304 53.1055 57.4628 52.0841L57.434 52.0719ZM55.7403 54.8906L55.7607 54.867C54.9776 54.1902 54.1215 53.603 53.2081 53.1162L53.1934 53.1437L53.1787 53.1713C54.0879 53.6559 54.9403 54.2405 55.7198 54.9143L55.7403 54.8906ZM53.1934 53.1437L53.2237 53.1513C53.5868 51.6834 53.812 50.0719 53.8715 48.3761L53.8403 48.375L53.809 48.3739C53.7497 50.0656 53.525 51.6728 53.163 53.1362L53.1934 53.1437ZM53.8403 48.375V48.4062H58.3246V48.375V48.3438H53.8403V48.375ZM58.3246 48.375L58.2935 48.3727C58.2 49.6474 57.9008 50.8847 57.4052 52.0597L57.434 52.0719L57.4628 52.084C57.961 50.9028 58.2618 49.6588 58.3558 48.3773L58.3246 48.375ZM58.3246 46.625V46.5938H53.8403V46.625V46.6562H58.3246V46.625ZM53.8403 46.625L53.8715 46.6239C53.812 44.9281 53.5868 43.3166 53.2237 41.8487L53.1934 41.8562L53.163 41.8638C53.525 43.3272 53.7497 44.9344 53.809 46.6261L53.8403 46.625ZM53.1934 41.8562L53.2081 41.8838C54.1258 41.3952 54.9808 40.8064 55.7607 40.133L55.7403 40.1094L55.7198 40.0857C54.9434 40.7561 54.0922 41.3423 53.1787 41.8287L53.1934 41.8562ZM55.7403 40.1094L55.716 40.1291C57.22 41.9803 58.1197 44.2485 58.2935 46.6273L58.3246 46.625L58.3558 46.6227C58.1811 44.2311 57.2766 41.9508 55.7645 40.0897L55.7403 40.1094ZM51.1778 36.6719L51.1656 36.7007C52.4029 37.2243 53.528 37.9473 54.5191 38.8574L54.5403 38.8344L54.5614 38.8114C53.565 37.8964 52.4338 37.1695 51.1899 36.6431L51.1778 36.6719ZM54.5403 38.8344L54.52 38.8106C53.9442 39.3009 53.3244 39.737 52.6684 40.1135L52.684 40.1406L52.6996 40.1677C53.3588 39.7893 53.9818 39.351 54.5605 38.8582L54.5403 38.8344ZM52.684 40.1406L52.7135 40.1303C52.222 38.7217 51.5926 37.4968 50.859 36.5157L50.834 36.5344L50.809 36.5531C51.538 37.5282 52.1647 38.7471 52.6545 40.1509L52.684 40.1406ZM50.834 36.5344L50.8229 36.5636C50.9381 36.6072 51.0534 36.6539 51.1657 36.7007L51.1778 36.6719L51.1898 36.643C51.0771 36.5961 50.9611 36.5491 50.8451 36.5051L50.834 36.5344ZM48.3465 58.5656L48.3272 58.541C48.0416 58.7646 47.7567 58.9348 47.4693 59.0491L47.4809 59.0781L47.4924 59.1072C47.7864 58.9902 48.0764 58.8167 48.3658 58.5902L48.3465 58.5656ZM47.4809 59.0781H47.5121V53.2812H47.4809H47.4496V59.0781H47.4809ZM47.4809 53.2812L47.4787 53.3124C48.7155 53.3987 49.9317 53.6741 51.085 54.1291L51.0965 54.1L51.108 54.0709C49.9487 53.6136 48.7262 53.3368 47.4831 53.2501L47.4809 53.2812ZM51.0965 54.1L51.0669 54.09C50.808 54.8574 50.5087 55.5651 50.1628 56.2039L50.1903 56.2188L50.2177 56.2336C50.5656 55.5912 50.8663 54.8801 51.1261 54.11L51.0965 54.1ZM50.1903 56.2188L50.1627 56.204C49.6203 57.2139 48.9853 58.0195 48.3271 58.5411L48.3465 58.5656L48.3659 58.5901C49.0327 58.0617 49.6727 57.2486 50.2178 56.2335L50.1903 56.2188ZM50.1903 38.7812L50.1627 38.796C50.5056 39.4381 50.808 40.1458 51.0669 40.91L51.0965 40.9L51.1261 40.89C50.8662 40.1229 50.5625 39.4119 50.2178 38.7665L50.1903 38.7812ZM51.0965 40.9L51.085 40.8709C49.9317 41.3259 48.7155 41.6013 47.4787 41.6876L47.4809 41.7188L47.4831 41.7499C48.7262 41.6632 49.9487 41.3864 51.108 40.9291L51.0965 40.9ZM47.4809 41.7188H47.5121V35.925H47.4809H47.4496V41.7188H47.4809ZM47.4809 35.925L47.4692 35.954C47.7537 36.0684 48.0417 36.2356 48.3271 36.462L48.3465 36.4375L48.3659 36.413C48.0763 36.1832 47.7831 36.0128 47.4925 35.896L47.4809 35.925ZM48.3465 36.4375L48.3272 36.462C48.9853 36.9805 49.6203 37.786 50.1627 38.796L50.1903 38.7812L50.2178 38.7665C49.6727 37.7515 49.0327 36.9383 48.3658 36.413L48.3465 36.4375ZM47.4809 51.5281H47.5121V48.375H47.4809H47.4496V51.5281H47.4809ZM47.4809 48.375V48.4062H52.0903V48.375V48.3438H47.4809V48.375ZM52.0903 48.375L52.059 48.3739C52.0091 49.7533 51.8375 51.092 51.5504 52.3619L51.5809 52.3687L51.6114 52.3756C51.8993 51.1018 52.0714 49.7592 52.1215 48.3761L52.0903 48.375ZM51.5809 52.3687L51.5506 52.3612L51.5412 52.3987L51.5715 52.4062L51.6018 52.4138L51.6112 52.3763L51.5809 52.3687ZM51.5715 52.4062L51.5826 52.377C50.2682 51.8786 48.8859 51.5819 47.4828 51.4969L47.4809 51.5281L47.479 51.5593C48.8759 51.6439 50.2519 51.9393 51.5604 52.4355L51.5715 52.4062ZM47.4809 46.625H47.5121V43.4719H47.4809H47.4496V46.625H47.4809ZM47.4809 43.4719L47.4828 43.5031C48.9172 43.4154 50.2953 43.1116 51.5826 42.623L51.5715 42.5938L51.5604 42.5645C50.2789 43.0509 48.907 43.3534 47.479 43.4407L47.4809 43.4719ZM51.5715 42.5938L51.5412 42.6013L51.5506 42.6388L51.5809 42.6313L51.6112 42.6237L51.6018 42.5862L51.5715 42.5938ZM51.5809 42.6313L51.5504 42.6381C51.8375 43.908 52.0091 45.2436 52.059 46.6261L52.0903 46.625L52.1215 46.6239C52.0714 45.2376 51.8993 43.8982 51.6114 42.6244L51.5809 42.6313ZM52.0903 46.625V46.5938H47.4809V46.625V46.6562H52.0903V46.625ZM45.7309 48.375H45.6996V51.5281H45.7309H45.7621V48.375H45.7309ZM45.7309 51.5281L45.729 51.4969C44.2945 51.5846 42.9164 51.8884 41.6292 52.377L41.6403 52.4062L41.6513 52.4355C42.9328 51.9491 44.3047 51.6466 45.7328 51.5593L45.7309 51.5281ZM41.6403 52.4062L41.6706 52.3987L41.6612 52.3612L41.6309 52.3687L41.6006 52.3763L41.6099 52.4138L41.6403 52.4062ZM41.6309 52.3687L41.6614 52.3619C41.3743 51.092 41.2027 49.7564 41.1527 48.3739L41.1215 48.375L41.0903 48.3761C41.1403 49.7624 41.3125 51.1018 41.6004 52.3756L41.6309 52.3687ZM41.1215 48.375V48.4062H45.7309V48.375V48.3438H41.1215V48.375ZM41.1215 46.625L41.1527 46.6261C41.2027 45.2467 41.3743 43.908 41.6614 42.6381L41.6309 42.6313L41.6004 42.6244C41.3124 43.8982 41.1403 45.2408 41.0903 46.6239L41.1215 46.625ZM41.6309 42.6313L41.6612 42.6388L41.6706 42.6013L41.6403 42.5938L41.6099 42.5862L41.6006 42.6237L41.6309 42.6313ZM41.6403 42.5938L41.6292 42.623C42.9164 43.1116 44.2914 43.4154 45.729 43.5031L45.7309 43.4719L45.7328 43.4407C44.3016 43.3534 42.9328 43.0509 41.6513 42.5645L41.6403 42.5938ZM45.7309 43.4719H45.6996V46.625H45.7309H45.7621V43.4719H45.7309ZM45.7309 46.625V46.5938H41.1215V46.625V46.6562H45.7309V46.625ZM45.7309 53.2812H45.6996V59.075H45.7309H45.7621V53.2812H45.7309ZM45.7309 59.075L45.7425 59.046C45.4581 58.9316 45.17 58.7644 44.8847 58.538L44.8653 58.5625L44.8458 58.587C45.1355 58.8168 45.4287 58.9872 45.7192 59.104L45.7309 59.075ZM44.8653 58.5625L44.8846 58.538C44.2264 58.0195 43.5883 57.2108 43.0459 56.2008L43.0184 56.2156L42.9908 56.2304C43.536 57.2454 44.1791 58.0618 44.8459 58.587L44.8653 58.5625ZM43.0184 56.2156L43.0459 56.2009C42.7031 55.5588 42.4006 54.851 42.1417 54.0868L42.1121 54.0969L42.0825 54.1069C42.3424 54.874 42.6462 55.5849 42.9908 56.2303L43.0184 56.2156ZM42.1121 54.0969L42.1235 54.126C43.2831 53.6709 44.4893 53.3997 45.7331 53.3124L45.7309 53.2812L45.7287 53.2501C44.4787 53.3378 43.2662 53.6104 42.1007 54.0678L42.1121 54.0969ZM45.7309 41.7188L45.7331 41.6876C44.4963 41.6013 43.28 41.3259 42.1267 40.8709L42.1153 40.9L42.1038 40.9291C43.263 41.3864 44.4855 41.6632 45.7287 41.7499L45.7309 41.7188ZM42.1153 40.9L42.1449 40.91C42.4038 40.1426 42.7031 39.4349 43.049 38.7961L43.0215 38.7812L42.994 38.7664C42.6462 39.4088 42.3455 40.1199 42.0856 40.89L42.1153 40.9ZM43.0215 38.7812L43.049 38.796C43.5915 37.786 44.2264 36.9774 44.8877 36.459L44.8684 36.4344L44.8491 36.4098C44.1791 36.9351 43.539 37.7515 42.994 38.7665L43.0215 38.7812ZM44.8684 36.4344L44.8876 36.459C45.1733 36.2354 45.4582 36.0652 45.7456 35.9509L45.734 35.9219L45.7225 35.8928C45.4285 36.0098 45.1385 36.1833 44.8491 36.4098L44.8684 36.4344ZM45.734 35.9219H45.7028V41.7188H45.734H45.7653V35.9219H45.734ZM45.734 41.7188V41.6875H45.7309V41.7188V41.75H45.734V41.7188ZM42.034 36.6719L42.0457 36.7008C42.1617 36.6538 42.2736 36.6072 42.3888 36.5636L42.3778 36.5344L42.3667 36.5051C42.2506 36.5491 42.1375 36.5962 42.0223 36.6429L42.034 36.6719ZM42.3778 36.5344L42.3527 36.5157C41.6192 37.4968 40.9897 38.7217 40.4982 40.1303L40.5278 40.1406L40.5573 40.1509C41.047 38.7471 41.6738 37.5282 42.4028 36.5531L42.3778 36.5344ZM40.5278 40.1406L40.5433 40.1135C39.8887 39.7395 39.2684 39.3031 38.6918 38.8106L38.6715 38.8344L38.6512 38.8581C39.2308 39.3532 39.8543 39.7918 40.5122 40.1678L40.5278 40.1406ZM38.6715 38.8344L38.6926 38.8574C39.6838 37.9473 40.8088 37.2243 42.0462 36.7007L42.034 36.6719L42.0218 36.6431C40.7779 37.1695 39.6468 37.8964 38.6504 38.8114L38.6715 38.8344ZM35.7778 42.9281L35.8065 42.9403C36.2366 41.9243 36.8039 40.983 37.4958 40.129L37.4715 40.1094L37.4472 40.0897C36.7516 40.9482 36.1814 41.8945 35.749 42.9159L35.7778 42.9281ZM37.4715 40.1094L37.4511 40.133C38.2309 40.8064 39.086 41.3952 40.0037 41.8838L40.0184 41.8562L40.0331 41.8287C39.1195 41.3423 38.2683 40.7561 37.4919 40.0857L37.4715 40.1094ZM40.0184 41.8562L39.988 41.8487C39.625 43.3166 39.3997 44.9281 39.3403 46.6239L39.3715 46.625L39.4027 46.6261C39.462 44.9344 39.6868 43.3272 40.0487 41.8638L40.0184 41.8562ZM39.3715 46.625V46.5938H34.8871V46.625V46.6562H39.3715V46.625ZM34.8871 46.625L34.9183 46.6273C35.0118 45.3526 35.311 44.1153 35.8065 42.9403L35.7778 42.9281L35.749 42.916C35.2508 44.0972 34.95 45.3412 34.856 46.6227L34.8871 46.625ZM34.8871 48.375V48.4062H39.3715V48.375V48.3438H34.8871V48.375ZM39.3715 48.375L39.3403 48.3761C39.3997 50.0719 39.625 51.6834 39.988 53.1513L40.0184 53.1437L40.0487 53.1362C39.6868 51.6728 39.462 50.0656 39.4027 48.3739L39.3715 48.375ZM40.0184 53.1437L40.0037 53.1162C39.0903 53.603 38.2341 54.1902 37.4511 54.867L37.4715 54.8906L37.4919 54.9143C38.2715 54.2405 39.1238 53.6559 40.0331 53.1713L40.0184 53.1437ZM37.4715 54.8906L37.4958 54.8709C35.9918 53.0197 35.0921 50.7515 34.9183 48.3727L34.8871 48.375L34.856 48.3773C35.0307 50.7689 35.9352 53.0492 37.4472 54.9103L37.4715 54.8906ZM42.034 58.3281L42.0462 58.2993C40.8088 57.7757 39.6838 57.0527 38.6926 56.1426L38.6715 56.1656L38.6504 56.1886C39.6468 57.1036 40.7779 57.8305 42.0218 58.3569L42.034 58.3281ZM38.6715 56.1656L38.6918 56.1894C39.2684 55.6969 39.8887 55.2637 40.5434 54.8865L40.5278 54.8594L40.5122 54.8323C39.8543 55.2113 39.2309 55.6468 38.6512 56.1419L38.6715 56.1656ZM40.5278 54.8594L40.4982 54.8697C40.9897 56.2783 41.6192 57.5032 42.3527 58.4843L42.3778 58.4656L42.4028 58.4469C41.6738 57.4718 41.047 56.2529 40.5573 54.8491L40.5278 54.8594ZM42.3778 58.4656L42.3888 58.4364C42.2736 58.3928 42.1584 58.3461 42.046 58.2993L42.034 58.3281L42.022 58.357C42.1347 58.4039 42.2506 58.4509 42.3667 58.4949L42.3778 58.4656ZM51.1778 58.3281L51.166 58.2992C51.05 58.3462 50.9381 58.3928 50.8229 58.4364L50.834 58.4656L50.8451 58.4949C50.9611 58.4509 51.0742 58.4038 51.1895 58.3571L51.1778 58.3281ZM50.834 58.4656L50.859 58.4843C51.5926 57.5032 52.222 56.2783 52.7135 54.8697L52.684 54.8594L52.6545 54.8491C52.1647 56.2529 51.538 57.4718 50.809 58.4469L50.834 58.4656ZM52.684 54.8594L52.6685 54.8865C53.323 55.2605 53.9433 55.6969 54.52 56.1894L54.5403 56.1656L54.5606 56.1419C53.9809 55.6468 53.3575 55.2082 52.6995 54.8322L52.684 54.8594ZM54.5403 56.1656L54.5191 56.1426C53.5335 57.0489 52.3991 57.7785 51.1656 58.2993L51.1778 58.3281L51.1899 58.3569C52.43 57.8333 53.5705 57.0998 54.5614 56.1886L54.5403 56.1656ZM34.606 52L34.5763 52.0099L35.5763 55.0099L35.606 55L35.6356 54.9901L34.6356 51.9901L34.606 52ZM35.606 55L35.5752 55.0056L35.8501 56.5056L35.8809 56.5L35.9116 56.4944L35.6367 54.9944L35.606 55ZM57.3278 56.5L57.3517 56.5201C58.3783 55.2992 59.2002 53.9017 59.7651 52.3796L59.7358 52.3687L59.7066 52.3579C59.1441 53.8732 58.3259 55.2644 57.3038 56.4799L57.3278 56.5ZM59.7358 52.3687L59.7651 52.3796C60.3292 50.8601 60.6371 49.2164 60.6371 47.5H60.6059H60.5746C60.5746 49.2088 60.268 50.8452 59.7066 52.3579L59.7358 52.3687Z" fill="#003FEB" mask="url(#path-8-inside-1_111_1195)"/>
<path d="M92.7505 0.444336C94.4882 0.444502 95.8062 1.76224 95.8062 3.5V16.333C95.8062 18.0708 94.4882 19.3885 92.7505 19.3887H79.4722V27.5557H71.9429L71.8208 27.6543L65.1948 33.0176V27.5557H63.5835C61.8456 27.5557 60.5278 26.2379 60.5278 24.5V11.667C60.5278 9.92912 61.8456 8.61133 63.5835 8.61133H78.3062V10.0557H63.5835C63.1325 10.0557 62.7221 10.2081 62.4233 10.5068C62.1247 10.8056 61.9722 11.2161 61.9722 11.667V24.5C61.9722 24.951 62.1246 25.3614 62.4233 25.6602C62.7221 25.9589 63.1325 26.1113 63.5835 26.1113H66.6392V29.9629L67.3579 29.3994L71.5532 26.1113H78.0278V17.9443H92.7505C93.2014 17.9443 93.612 17.7918 93.9106 17.4932C94.2092 17.1945 94.3608 16.7838 94.3608 16.333V3.5C94.3608 3.04908 94.2093 2.63857 93.9106 2.33984C93.612 2.04118 93.2014 1.88875 92.7505 1.88867H75.9722V5.38867H74.5278V0.444336H92.7505Z" fill="#003FEB" stroke="#003FEB" stroke-width="0.888889"/>
<path d="M71.3271 13.2778L74.9541 22.772H73.1074L72.5166 21.1938L72.4082 20.9058H68.1758L68.0674 21.1938L67.4756 22.772H65.623L69.1426 13.2778H71.3271ZM69.8105 15.6138L68.6436 19.23L68.4561 19.811H72.0107L71.8232 19.23L70.6562 15.6138L70.2334 14.3022L69.8105 15.6138Z" fill="#003FEB" stroke="#003FEB" stroke-width="0.888889"/>
<path d="M86.4722 3.94434V6.27734H89.9722V7C89.9722 9.92012 88.9659 11.9055 87.6528 13.2188L87.1587 13.7129L87.8149 13.9512C88.4954 14.1986 89.1413 14.3216 89.6157 14.3828C89.7481 14.3999 89.8682 14.411 89.9722 14.4199V15.8721C88.8697 15.797 87.3216 15.456 85.9487 14.7695L85.7505 14.6699L85.5513 14.7695C84.1634 15.4634 82.6895 15.8036 81.5278 15.874V14.4287C82.0214 14.397 82.8291 14.2942 83.6987 13.9463L84.3247 13.6953L83.8481 13.2188C83.0908 12.4614 82.4919 11.5366 82.0542 10.3613H83.605C84.0987 11.356 84.7819 12.1385 85.4653 12.708L85.7407 12.9375L86.0229 12.7178C87.1619 11.8319 88.1613 10.4421 88.4087 8.21582L88.4634 7.72266H81.5278V6.27734H85.0278V3.94434H86.4722Z" fill="#003FEB" stroke="#003FEB" stroke-width="0.888889"/>
<path d="M35.75 64.8333L41.25 63.5L46.75 67L52.25 64L57.75 64.5" stroke="#003FEB" stroke-width="1.5"/>
</svg>
