<svg width="143" height="128" viewBox="0 0 143 128" fill="none" xmlns="http://www.w3.org/2000/svg">
<path d="M63.7875 83.2827C63.7875 83.2827 63.3521 84.9409 68.8308 84.9409C74.3095 84.9409 73.7214 83.0209 73.7214 83.0209" stroke="#003DE8"/>
<path d="M65.3677 81.7994C65.3677 81.7994 65.635 82.4976 68.9048 82.4976C72.1746 82.4976 72.1408 81.7994 72.1408 81.7994" stroke="#003DE8"/>
<path d="M63.75 83.3527L65.5057 81.4998L64.5134 83.9704L65.8874 82.1174L65.5057 84.3233L66.5744 82.2939L66.6508 84.588L67.4141 82.4704L67.7195 84.6763L68.4065 82.5586L68.8645 84.6763L69.3989 82.5586L69.8569 84.6763L70.3149 82.4704L70.8492 84.588L71.1546 82.2939L71.8416 84.4116V82.1174L72.9866 83.9704L72.2996 81.8527L73.75 83.3527" stroke="#003DE8" stroke-linejoin="round"/>
<path d="M63.8462 83.5L23.75 52.8333L27.2115 46.7L28.3654 45.3857L29.5192 43.1952L68.75 74.7381L51.2981 56.9952L33.8462 39.2524L34.7115 37.5L51.7308 56.119L68.75 74.7381L67.8846 76.4905L67.0192 78.2429L63.8462 83.5Z" fill="#003DE8"/>
<path d="M67.0192 78.2429L63.8462 83.5L23.75 52.8333L27.2115 46.7M67.0192 78.2429L27.2115 46.7M67.0192 78.2429L67.8846 76.4905M27.2115 46.7L28.3654 45.3857M67.8846 76.4905L28.3654 45.3857M67.8846 76.4905L68.75 74.7381M28.3654 45.3857L29.5192 43.1952L68.75 74.7381M68.75 74.7381C68.75 74.7381 58.3772 63.3902 51.7308 56.119C45.0843 48.8479 34.7115 37.5 34.7115 37.5L33.8462 39.2524L51.2981 56.9952L68.75 74.7381Z" stroke="#003DE8" stroke-width="1.5" stroke-linejoin="round"/>
<path d="M73.7628 83.5L114.75 52.8333L111.212 46.7L110.032 45.3857L108.853 43.1952L68.75 74.7381L104.429 39.2524L103.545 37.5L68.75 74.7381L69.6346 76.4905L70.5192 78.2429L73.7628 83.5Z" fill="#003DE8"/>
<path d="M70.5192 78.2429L73.7628 83.5L114.75 52.8333L111.212 46.7M70.5192 78.2429L111.212 46.7M70.5192 78.2429L69.6346 76.4905M111.212 46.7L110.032 45.3857M69.6346 76.4905L110.032 45.3857M69.6346 76.4905L68.75 74.7381M110.032 45.3857L108.853 43.1952L68.75 74.7381M68.75 74.7381L104.429 39.2524L103.545 37.5L68.75 74.7381Z" stroke="#003DE8" stroke-width="1.5" stroke-linejoin="round"/>
<mask id="path-8-inside-1_153_604" fill="white">
<path d="M80.3059 56.5281C80.3121 56.5188 80.3215 56.5094 80.3278 56.5C81.3521 55.2818 82.1721 53.8875 82.7358 52.3687C83.2986 50.8527 83.6059 49.2126 83.6059 47.5C83.6059 44.0719 82.3746 40.9344 80.3309 38.5C80.3246 38.4906 80.3153 38.4844 80.309 38.475C80.2746 38.4344 80.2434 38.3969 80.209 38.3594C80.1965 38.3438 80.184 38.3313 80.1715 38.3156L80.0434 38.1687L80.0403 38.1656C79.9934 38.1125 79.9434 38.0594 79.8965 38.0062L79.8934 38.0031C79.7934 37.8969 79.6934 37.7906 79.5903 37.6875L79.5871 37.6844L79.4371 37.5344L79.4278 37.525C79.3809 37.4781 79.334 37.4344 79.2871 37.3906C79.2715 37.375 79.2559 37.3594 79.2371 37.3438C79.2059 37.3125 79.1746 37.2844 79.1434 37.2562C79.134 37.2469 79.1215 37.2375 79.1121 37.225C76.6184 34.9125 73.2778 33.5 69.6059 33.5C65.934 33.5 62.5934 34.9125 60.0965 37.225C60.0871 37.2344 60.0746 37.2437 60.0653 37.2562C60.034 37.2844 60.0028 37.3156 59.9715 37.3469C59.9559 37.3625 59.9403 37.3781 59.9215 37.3938C59.8746 37.4375 59.8278 37.4844 59.7809 37.5281L59.7715 37.5375L59.6215 37.6875L59.6184 37.6906C59.5153 37.7938 59.4153 37.9 59.3153 38.0062L59.3121 38.0094C59.2621 38.0625 59.2153 38.1156 59.1684 38.1687L59.1653 38.1719C59.1215 38.2188 59.0778 38.2687 59.0371 38.3187C59.0246 38.3344 59.0121 38.3469 58.9996 38.3625C58.9653 38.4 58.934 38.4406 58.8996 38.4781C58.8934 38.4875 58.884 38.4938 58.8778 38.5031C56.8371 40.9344 55.6059 44.0719 55.6059 47.5C55.6059 50.9281 57.106 53.8118 58.8809 56.5C58.7777 52.0719 60.106 55.725 57.606 52L58.606 55L58.8809 56.5C58.8934 56.5156 59.0246 56.6719 59.0371 56.6875L59.1653 56.8344C59.1653 56.8375 59.1684 56.8375 59.1684 56.8406C59.2153 56.8938 59.2621 56.9469 59.3121 56.9969L59.3153 57C59.4153 57.1063 59.5153 57.2125 59.6153 57.3156L59.6184 57.3188C59.6684 57.3687 59.7153 57.4188 59.7653 57.4656L60.4715 58C60.4715 58 52.1059 58 55.6059 60.5C55.6059 60.5 59.8121 56.9969 70.1059 61.5C83.6058 56.8344 83.109 61.3906 85.6059 59.0781C86.6012 58.1562 79.3259 57.5774 79.4278 57.475L79.4371 57.4656C79.4871 57.4156 79.5371 57.3687 79.584 57.3188L79.5871 57.3156C79.6903 57.2125 79.7903 57.1063 79.8871 57L79.8903 56.9969C79.9371 56.9438 79.9871 56.8938 80.034 56.8406C80.034 56.8375 80.0371 56.8375 80.0371 56.8344C80.0809 56.7875 80.1246 56.7375 80.1653 56.6875C80.1778 56.6719 80.1903 56.6594 80.2028 56.6437C80.2381 56.6061 80.2725 56.5675 80.3059 56.5281ZM80.434 52.0719C80.0028 53.0906 79.434 54.0344 78.7403 54.8906C77.959 54.2154 77.1047 53.6294 76.1934 53.1437C76.5559 51.6781 76.7809 50.0688 76.8403 48.375H81.3246C81.2309 49.6531 80.9309 50.8937 80.434 52.0719ZM81.3246 46.625H76.8403C76.7809 44.9312 76.5559 43.3219 76.1934 41.8562C77.109 41.3687 77.9621 40.7812 78.7403 40.1094C80.2483 41.9655 81.1504 44.2398 81.3246 46.625ZM74.1778 36.6719C75.4184 37.1969 76.5465 37.9219 77.5403 38.8344C76.963 39.3259 76.3416 39.7632 75.684 40.1406C75.1934 38.7344 74.5653 37.5125 73.834 36.5344C73.9496 36.5781 74.0653 36.625 74.1778 36.6719ZM71.3465 58.5656C71.059 58.7906 70.7715 58.9625 70.4809 59.0781V53.2812C71.7209 53.3678 72.9402 53.6439 74.0965 54.1C73.8371 54.8687 73.5371 55.5781 73.1903 56.2188C72.6465 57.2313 72.009 58.0406 71.3465 58.5656ZM73.1903 38.7812C73.534 39.425 73.8371 40.1344 74.0965 40.9C72.9402 41.3561 71.7209 41.6322 70.4809 41.7188V35.925C70.7684 36.0406 71.059 36.2094 71.3465 36.4375C72.009 36.9594 72.6465 37.7688 73.1903 38.7812ZM70.4809 51.5281V48.375H75.0903C75.0403 49.7563 74.8684 51.0969 74.5809 52.3687L74.5715 52.4062C73.2601 51.9089 71.8809 51.6129 70.4809 51.5281ZM70.4809 46.625V43.4719C71.9121 43.3844 73.2871 43.0813 74.5715 42.5938L74.5809 42.6313C74.8684 43.9031 75.0403 45.2406 75.0903 46.625H70.4809ZM68.7309 48.375V51.5281C67.2996 51.6156 65.9246 51.9188 64.6403 52.4062L64.6309 52.3687C64.3434 51.0969 64.1715 49.7594 64.1215 48.375H68.7309ZM64.1215 46.625C64.1715 45.2437 64.3434 43.9031 64.6309 42.6313L64.6403 42.5938C65.9246 43.0813 67.2965 43.3844 68.7309 43.4719V46.625H64.1215ZM68.7309 53.2812V59.075C68.4434 58.9594 68.1528 58.7906 67.8653 58.5625C67.2028 58.0406 66.5621 57.2281 66.0184 56.2156C65.6746 55.5719 65.3715 54.8625 65.1121 54.0969C66.2746 53.6406 67.484 53.3687 68.7309 53.2812ZM68.7309 41.7188C67.4909 41.6322 66.2715 41.3561 65.1153 40.9C65.3746 40.1312 65.6746 39.4219 66.0215 38.7812C66.5653 37.7688 67.2028 36.9562 67.8684 36.4344C68.1559 36.2094 68.4434 36.0375 68.734 35.9219V41.7188H68.7309ZM65.034 36.6719C65.1496 36.625 65.2621 36.5781 65.3778 36.5344C64.6465 37.5125 64.0184 38.7344 63.5278 40.1406C62.8715 39.7656 62.2496 39.3281 61.6715 38.8344C62.6653 37.9219 63.7934 37.1969 65.034 36.6719ZM58.7778 42.9281C59.209 41.9094 59.7778 40.9656 60.4715 40.1094C61.2496 40.7812 62.1028 41.3687 63.0184 41.8562C62.6559 43.3219 62.4309 44.9312 62.3715 46.625H57.8871C57.9809 45.3469 58.2809 44.1063 58.7778 42.9281ZM57.8871 48.375H62.3715C62.4309 50.0688 62.6559 51.6781 63.0184 53.1437C62.1071 53.6294 61.2528 54.2154 60.4715 54.8906C58.9635 53.0345 58.0614 50.7602 57.8871 48.375ZM65.034 58.3281C63.7934 57.8031 62.6653 57.0781 61.6715 56.1656C62.2496 55.6719 62.8715 55.2375 63.5278 54.8594C64.0184 56.2656 64.6465 57.4875 65.3778 58.4656C65.2621 58.4219 65.1465 58.375 65.034 58.3281ZM74.1778 58.3281C74.0621 58.375 73.9496 58.4219 73.834 58.4656C74.5653 57.4875 75.1934 56.2656 75.684 54.8594C76.3403 55.2344 76.9621 55.6719 77.5403 56.1656C76.552 57.0743 75.4145 57.8059 74.1778 58.3281Z"/>
</mask>
<path d="M80.3059 56.5281C80.3121 56.5188 80.3215 56.5094 80.3278 56.5C81.3521 55.2818 82.1721 53.8875 82.7358 52.3687C83.2986 50.8527 83.6059 49.2126 83.6059 47.5C83.6059 44.0719 82.3746 40.9344 80.3309 38.5C80.3246 38.4906 80.3153 38.4844 80.309 38.475C80.2746 38.4344 80.2434 38.3969 80.209 38.3594C80.1965 38.3438 80.184 38.3313 80.1715 38.3156L80.0434 38.1687L80.0403 38.1656C79.9934 38.1125 79.9434 38.0594 79.8965 38.0062L79.8934 38.0031C79.7934 37.8969 79.6934 37.7906 79.5903 37.6875L79.5871 37.6844L79.4371 37.5344L79.4278 37.525C79.3809 37.4781 79.334 37.4344 79.2871 37.3906C79.2715 37.375 79.2559 37.3594 79.2371 37.3438C79.2059 37.3125 79.1746 37.2844 79.1434 37.2562C79.134 37.2469 79.1215 37.2375 79.1121 37.225C76.6184 34.9125 73.2778 33.5 69.6059 33.5C65.934 33.5 62.5934 34.9125 60.0965 37.225C60.0871 37.2344 60.0746 37.2437 60.0653 37.2562C60.034 37.2844 60.0028 37.3156 59.9715 37.3469C59.9559 37.3625 59.9403 37.3781 59.9215 37.3938C59.8746 37.4375 59.8278 37.4844 59.7809 37.5281L59.7715 37.5375L59.6215 37.6875L59.6184 37.6906C59.5153 37.7938 59.4153 37.9 59.3153 38.0062L59.3121 38.0094C59.2621 38.0625 59.2153 38.1156 59.1684 38.1687L59.1653 38.1719C59.1215 38.2188 59.0778 38.2687 59.0371 38.3187C59.0246 38.3344 59.0121 38.3469 58.9996 38.3625C58.9653 38.4 58.934 38.4406 58.8996 38.4781C58.8934 38.4875 58.884 38.4938 58.8778 38.5031C56.8371 40.9344 55.6059 44.0719 55.6059 47.5C55.6059 50.9281 57.106 53.8118 58.8809 56.5C58.7777 52.0719 60.106 55.725 57.606 52L58.606 55L58.8809 56.5C58.8934 56.5156 59.0246 56.6719 59.0371 56.6875L59.1653 56.8344C59.1653 56.8375 59.1684 56.8375 59.1684 56.8406C59.2153 56.8938 59.2621 56.9469 59.3121 56.9969L59.3153 57C59.4153 57.1063 59.5153 57.2125 59.6153 57.3156L59.6184 57.3188C59.6684 57.3687 59.7153 57.4188 59.7653 57.4656L60.4715 58C60.4715 58 52.1059 58 55.6059 60.5C55.6059 60.5 59.8121 56.9969 70.1059 61.5C83.6058 56.8344 83.109 61.3906 85.6059 59.0781C86.6012 58.1562 79.3259 57.5774 79.4278 57.475L79.4371 57.4656C79.4871 57.4156 79.5371 57.3687 79.584 57.3188L79.5871 57.3156C79.6903 57.2125 79.7903 57.1063 79.8871 57L79.8903 56.9969C79.9371 56.9438 79.9871 56.8938 80.034 56.8406C80.034 56.8375 80.0371 56.8375 80.0371 56.8344C80.0809 56.7875 80.1246 56.7375 80.1653 56.6875C80.1778 56.6719 80.1903 56.6594 80.2028 56.6437C80.2381 56.6061 80.2725 56.5675 80.3059 56.5281ZM80.434 52.0719C80.0028 53.0906 79.434 54.0344 78.7403 54.8906C77.959 54.2154 77.1047 53.6294 76.1934 53.1437C76.5559 51.6781 76.7809 50.0688 76.8403 48.375H81.3246C81.2309 49.6531 80.9309 50.8937 80.434 52.0719ZM81.3246 46.625H76.8403C76.7809 44.9312 76.5559 43.3219 76.1934 41.8562C77.109 41.3687 77.9621 40.7812 78.7403 40.1094C80.2483 41.9655 81.1504 44.2398 81.3246 46.625ZM74.1778 36.6719C75.4184 37.1969 76.5465 37.9219 77.5403 38.8344C76.963 39.3259 76.3416 39.7632 75.684 40.1406C75.1934 38.7344 74.5653 37.5125 73.834 36.5344C73.9496 36.5781 74.0653 36.625 74.1778 36.6719ZM71.3465 58.5656C71.059 58.7906 70.7715 58.9625 70.4809 59.0781V53.2812C71.7209 53.3678 72.9402 53.6439 74.0965 54.1C73.8371 54.8687 73.5371 55.5781 73.1903 56.2188C72.6465 57.2313 72.009 58.0406 71.3465 58.5656ZM73.1903 38.7812C73.534 39.425 73.8371 40.1344 74.0965 40.9C72.9402 41.3561 71.7209 41.6322 70.4809 41.7188V35.925C70.7684 36.0406 71.059 36.2094 71.3465 36.4375C72.009 36.9594 72.6465 37.7688 73.1903 38.7812ZM70.4809 51.5281V48.375H75.0903C75.0403 49.7563 74.8684 51.0969 74.5809 52.3687L74.5715 52.4062C73.2601 51.9089 71.8809 51.6129 70.4809 51.5281ZM70.4809 46.625V43.4719C71.9121 43.3844 73.2871 43.0813 74.5715 42.5938L74.5809 42.6313C74.8684 43.9031 75.0403 45.2406 75.0903 46.625H70.4809ZM68.7309 48.375V51.5281C67.2996 51.6156 65.9246 51.9188 64.6403 52.4062L64.6309 52.3687C64.3434 51.0969 64.1715 49.7594 64.1215 48.375H68.7309ZM64.1215 46.625C64.1715 45.2437 64.3434 43.9031 64.6309 42.6313L64.6403 42.5938C65.9246 43.0813 67.2965 43.3844 68.7309 43.4719V46.625H64.1215ZM68.7309 53.2812V59.075C68.4434 58.9594 68.1528 58.7906 67.8653 58.5625C67.2028 58.0406 66.5621 57.2281 66.0184 56.2156C65.6746 55.5719 65.3715 54.8625 65.1121 54.0969C66.2746 53.6406 67.484 53.3687 68.7309 53.2812ZM68.7309 41.7188C67.4909 41.6322 66.2715 41.3561 65.1153 40.9C65.3746 40.1312 65.6746 39.4219 66.0215 38.7812C66.5653 37.7688 67.2028 36.9562 67.8684 36.4344C68.1559 36.2094 68.4434 36.0375 68.734 35.9219V41.7188H68.7309ZM65.034 36.6719C65.1496 36.625 65.2621 36.5781 65.3778 36.5344C64.6465 37.5125 64.0184 38.7344 63.5278 40.1406C62.8715 39.7656 62.2496 39.3281 61.6715 38.8344C62.6653 37.9219 63.7934 37.1969 65.034 36.6719ZM58.7778 42.9281C59.209 41.9094 59.7778 40.9656 60.4715 40.1094C61.2496 40.7812 62.1028 41.3687 63.0184 41.8562C62.6559 43.3219 62.4309 44.9312 62.3715 46.625H57.8871C57.9809 45.3469 58.2809 44.1063 58.7778 42.9281ZM57.8871 48.375H62.3715C62.4309 50.0688 62.6559 51.6781 63.0184 53.1437C62.1071 53.6294 61.2528 54.2154 60.4715 54.8906C58.9635 53.0345 58.0614 50.7602 57.8871 48.375ZM65.034 58.3281C63.7934 57.8031 62.6653 57.0781 61.6715 56.1656C62.2496 55.6719 62.8715 55.2375 63.5278 54.8594C64.0184 56.2656 64.6465 57.4875 65.3778 58.4656C65.2621 58.4219 65.1465 58.375 65.034 58.3281ZM74.1778 58.3281C74.0621 58.375 73.9496 58.4219 73.834 58.4656C74.5653 57.4875 75.1934 56.2656 75.684 54.8594C76.3403 55.2344 76.9621 55.6719 77.5403 56.1656C76.552 57.0743 75.4145 57.8059 74.1778 58.3281Z" fill="#003DE8"/>
<path d="M80.3059 56.5281L80.3299 56.5485L80.3319 56.5455L80.3059 56.5281ZM80.3278 56.5L80.3037 56.4798L80.3018 56.4827L80.3278 56.5ZM80.3309 38.5L80.3047 38.5174L80.3069 38.5201L80.3309 38.5ZM80.309 38.475L80.3352 38.4576L80.3329 38.4548L80.309 38.475ZM80.209 38.3594L80.1845 38.3789L80.186 38.3805L80.209 38.3594ZM80.1715 38.3156L80.1959 38.2961L80.1951 38.2951L80.1715 38.3156ZM80.0434 38.1687L80.067 38.1482L80.0655 38.1467L80.0434 38.1687ZM80.0403 38.1656L80.0168 38.1863L80.0182 38.1877L80.0403 38.1656ZM79.8965 38.0062L79.92 37.9855L79.9186 37.9842L79.8965 38.0062ZM79.8934 38.0031L79.8706 38.0246L79.8713 38.0252L79.8934 38.0031ZM79.5903 37.6875L79.5682 37.7096L79.5682 37.7096L79.5903 37.6875ZM79.5871 37.6844L79.6092 37.6623L79.6092 37.6623L79.5871 37.6844ZM79.4371 37.5344L79.415 37.5565L79.415 37.5565L79.4371 37.5344ZM79.4278 37.525L79.4499 37.5029L79.4499 37.5029L79.4278 37.525ZM79.2871 37.3906L79.265 37.4127L79.2658 37.4135L79.2871 37.3906ZM79.2371 37.3438L79.2149 37.3659L79.2171 37.3678L79.2371 37.3438ZM79.1434 37.2562L79.1213 37.2784L79.1225 37.2795L79.1434 37.2562ZM79.1121 37.225L79.1375 37.2059L79.1334 37.2021L79.1121 37.225ZM60.0965 37.225L60.0753 37.2021L60.0744 37.2029L60.0965 37.225ZM60.0653 37.2562L60.0866 37.2799L60.0903 37.275L60.0653 37.2562ZM59.9215 37.3938L59.9015 37.3697L59.9002 37.3709L59.9215 37.3938ZM59.7809 37.5281L59.7595 37.5053L59.7588 37.506L59.7809 37.5281ZM59.7715 37.5375L59.7494 37.5154L59.7494 37.5154L59.7715 37.5375ZM59.6215 37.6875L59.5994 37.6654L59.5994 37.6654L59.6215 37.6875ZM59.6184 37.6906L59.6405 37.7127L59.6405 37.7127L59.6184 37.6906ZM59.3153 38.0062L59.3374 38.0284L59.338 38.0277L59.3153 38.0062ZM59.3121 38.0094L59.29 37.9873L59.2894 37.988L59.3121 38.0094ZM59.1684 38.1687L59.1905 38.1909L59.1918 38.1894L59.1684 38.1687ZM59.1653 38.1719L59.1431 38.1498L59.1424 38.1506L59.1653 38.1719ZM59.0371 38.3187L59.0129 38.299L59.0127 38.2992L59.0371 38.3187ZM58.9996 38.3625L59.0227 38.3837L59.024 38.382L58.9996 38.3625ZM58.8996 38.4781L58.8763 38.4568L58.8736 38.4608L58.8996 38.4781ZM58.8778 38.5031L58.9018 38.5233L58.9038 38.5205L58.8778 38.5031ZM58.8809 56.5L58.8547 56.5173L58.8565 56.5195L58.8809 56.5ZM57.606 52L57.6319 51.9826L57.5763 52.0099L57.606 52ZM59.0371 56.6875L59.0127 56.707L59.0136 56.708L59.0371 56.6875ZM59.1653 56.8344H59.1965V56.8227L59.1888 56.8138L59.1653 56.8344ZM59.1684 56.8406H59.1371V56.8524L59.1449 56.8613L59.1684 56.8406ZM59.3153 57L59.338 56.9786L59.3374 56.9779L59.3153 57ZM59.6153 57.3156L59.5928 57.3374L59.5932 57.3377L59.6153 57.3156ZM59.6184 57.3188L59.5963 57.3408L59.5963 57.3408L59.6184 57.3188ZM59.7653 57.4656L59.7438 57.4886L59.7464 57.4905L59.7653 57.4656ZM60.4715 58V58.0312H60.5646L60.4904 57.9751L60.4715 58ZM55.6059 60.5L55.5877 60.5254L55.6073 60.5394L55.6259 60.524L55.6059 60.5ZM70.1059 61.5L70.0933 61.5286L70.1045 61.5335L70.1161 61.5295L70.1059 61.5ZM85.6059 59.0781L85.5846 59.0552L85.6059 59.0781ZM79.4278 57.475L79.4057 57.4529L79.4056 57.453L79.4278 57.475ZM79.584 57.3188L79.5619 57.2966L79.5612 57.2974L79.584 57.3188ZM79.8871 57L79.865 56.9779L79.864 56.9789L79.8871 57ZM79.8903 56.9969L79.9124 57.019L79.9137 57.0176L79.8903 56.9969ZM80.034 56.8406L80.0574 56.8613L80.0653 56.8524V56.8406H80.034ZM80.0371 56.8344L80.0143 56.8131L80.0059 56.8221V56.8344H80.0371ZM80.1653 56.6875L80.1895 56.7072L80.1897 56.707L80.1653 56.6875ZM80.2028 56.6437L80.1799 56.6223L80.1784 56.6242L80.2028 56.6437ZM80.434 52.0719L80.4628 52.0841L80.4628 52.084L80.434 52.0719ZM78.7403 54.8906L78.7198 54.9143L78.7442 54.9354L78.7645 54.9103L78.7403 54.8906ZM76.1934 53.1437L76.163 53.1362L76.1572 53.1599L76.1787 53.1713L76.1934 53.1437ZM76.8403 48.375V48.3438H76.8101L76.809 48.3739L76.8403 48.375ZM81.3246 48.375L81.3558 48.3773L81.3583 48.3438H81.3246V48.375ZM81.3246 46.625V46.6562H81.3582L81.3558 46.6227L81.3246 46.625ZM76.8403 46.625L76.809 46.6261L76.8101 46.6562H76.8403V46.625ZM76.1934 41.8562L76.1787 41.8287L76.1572 41.8401L76.163 41.8638L76.1934 41.8562ZM78.7403 40.1094L78.7645 40.0897L78.7442 40.0647L78.7198 40.0857L78.7403 40.1094ZM74.1778 36.6719L74.1899 36.6431L74.1898 36.643L74.1778 36.6719ZM77.5403 38.8344L77.5605 38.8582L77.5874 38.8353L77.5614 38.8114L77.5403 38.8344ZM75.684 40.1406L75.6545 40.1509L75.6669 40.1865L75.6996 40.1677L75.684 40.1406ZM73.834 36.5344L73.8451 36.5051L73.7448 36.4672L73.809 36.5531L73.834 36.5344ZM71.3465 58.5656L71.3658 58.5902L71.3659 58.5901L71.3465 58.5656ZM70.4809 59.0781H70.4496V59.1242L70.4924 59.1072L70.4809 59.0781ZM70.4809 53.2812L70.4831 53.2501L70.4496 53.2477V53.2812H70.4809ZM74.0965 54.1L74.1261 54.11L74.1356 54.0818L74.108 54.0709L74.0965 54.1ZM73.1903 56.2188L73.1628 56.2039L73.1627 56.204L73.1903 56.2188ZM73.1903 38.7812L73.2178 38.7665L73.2178 38.7665L73.1903 38.7812ZM74.0965 40.9L74.108 40.9291L74.1357 40.9182L74.1261 40.89L74.0965 40.9ZM70.4809 41.7188H70.4496V41.7523L70.4831 41.7499L70.4809 41.7188ZM70.4809 35.925L70.4925 35.896L70.4496 35.8787V35.925H70.4809ZM71.3465 36.4375L71.3271 36.462L71.3272 36.462L71.3465 36.4375ZM70.4809 51.5281H70.4496V51.5575L70.479 51.5593L70.4809 51.5281ZM70.4809 48.375V48.3438H70.4496V48.375H70.4809ZM75.0903 48.375L75.1215 48.3761L75.1227 48.3438H75.0903V48.375ZM74.5809 52.3687L74.6112 52.3763L74.6114 52.3756L74.5809 52.3687ZM74.5715 52.4062L74.5604 52.4355L74.5933 52.4479L74.6018 52.4138L74.5715 52.4062ZM70.4809 46.625H70.4496V46.6562H70.4809V46.625ZM70.4809 43.4719L70.479 43.4407L70.4496 43.4425V43.4719H70.4809ZM74.5715 42.5938L74.6018 42.5862L74.5933 42.5521L74.5604 42.5645L74.5715 42.5938ZM74.5809 42.6313L74.6114 42.6244L74.6112 42.6237L74.5809 42.6313ZM75.0903 46.625V46.6562H75.1227L75.1215 46.6239L75.0903 46.625ZM68.7309 48.375H68.7621V48.3438H68.7309V48.375ZM68.7309 51.5281L68.7328 51.5593L68.7621 51.5575V51.5281H68.7309ZM64.6403 52.4062L64.6099 52.4138L64.6185 52.4479L64.6513 52.4355L64.6403 52.4062ZM64.6309 52.3687L64.6004 52.3756L64.6006 52.3763L64.6309 52.3687ZM64.1215 48.375V48.3438H64.0891L64.0903 48.3761L64.1215 48.375ZM64.1215 46.625L64.0903 46.6239L64.0891 46.6562H64.1215V46.625ZM64.6309 42.6313L64.6006 42.6237L64.6004 42.6244L64.6309 42.6313ZM64.6403 42.5938L64.6513 42.5645L64.6185 42.5521L64.6099 42.5862L64.6403 42.5938ZM68.7309 43.4719H68.7621V43.4425L68.7328 43.4407L68.7309 43.4719ZM68.7309 46.625V46.6562H68.7621V46.625H68.7309ZM68.7309 53.2812H68.7621V53.2477L68.7287 53.2501L68.7309 53.2812ZM68.7309 59.075L68.7192 59.104L68.7621 59.1213V59.075H68.7309ZM67.8653 58.5625L67.8847 58.538L67.8846 58.538L67.8653 58.5625ZM66.0184 56.2156L65.9908 56.2303L65.9908 56.2304L66.0184 56.2156ZM65.1121 54.0969L65.1007 54.0678L65.073 54.0787L65.0825 54.1069L65.1121 54.0969ZM68.7309 41.7188L68.7287 41.75H68.7309V41.7188ZM65.1153 40.9L65.0856 40.89L65.0761 40.9182L65.1038 40.9291L65.1153 40.9ZM66.0215 38.7812L66.049 38.7961L66.049 38.796L66.0215 38.7812ZM67.8684 36.4344L67.8491 36.4098L67.8491 36.4098L67.8684 36.4344ZM68.734 35.9219H68.7653V35.8758L68.7225 35.8928L68.734 35.9219ZM68.734 41.7188V41.75H68.7653V41.7188H68.734ZM65.034 36.6719L65.0223 36.6429L65.0218 36.6431L65.034 36.6719ZM65.3778 36.5344L65.4028 36.5531L65.467 36.4672L65.3667 36.5051L65.3778 36.5344ZM63.5278 40.1406L63.5122 40.1678L63.5449 40.1864L63.5573 40.1509L63.5278 40.1406ZM61.6715 38.8344L61.6504 38.8114L61.6244 38.8352L61.6512 38.8581L61.6715 38.8344ZM58.7778 42.9281L58.749 42.9159L58.749 42.916L58.7778 42.9281ZM60.4715 40.1094L60.4919 40.0857L60.4675 40.0646L60.4472 40.0897L60.4715 40.1094ZM63.0184 41.8562L63.0487 41.8638L63.0546 41.8401L63.0331 41.8287L63.0184 41.8562ZM62.3715 46.625V46.6562H62.4017L62.4027 46.6261L62.3715 46.625ZM57.8871 46.625L57.856 46.6227L57.8535 46.6562H57.8871V46.625ZM57.8871 48.375V48.3438H57.8535L57.856 48.3773L57.8871 48.375ZM62.3715 48.375L62.4027 48.3739L62.4017 48.3438H62.3715V48.375ZM63.0184 53.1437L63.0331 53.1713L63.0546 53.1599L63.0487 53.1362L63.0184 53.1437ZM60.4715 54.8906L60.4472 54.9103L60.4676 54.9353L60.4919 54.9143L60.4715 54.8906ZM65.034 58.3281L65.0218 58.3569L65.022 58.357L65.034 58.3281ZM61.6715 56.1656L61.6512 56.1419L61.6244 56.1648L61.6504 56.1886L61.6715 56.1656ZM63.5278 54.8594L63.5573 54.8491L63.5448 54.8135L63.5122 54.8323L63.5278 54.8594ZM65.3778 58.4656L65.3667 58.4949L65.467 58.5328L65.4028 58.4469L65.3778 58.4656ZM74.1778 58.3281L74.1895 58.3571L74.1899 58.3569L74.1778 58.3281ZM73.834 58.4656L73.809 58.4469L73.7448 58.5328L73.8451 58.4949L73.834 58.4656ZM75.684 54.8594L75.6995 54.8322L75.6669 54.8136L75.6545 54.8491L75.684 54.8594ZM77.5403 56.1656L77.5614 56.1886L77.5874 56.1648L77.5606 56.1419L77.5403 56.1656ZM58.606 55L58.637 54.9943L58.6356 54.9901L58.606 55ZM82.7358 52.3687L82.7651 52.3796L82.7358 52.3687ZM80.3319 56.5455C80.3339 56.5424 80.3367 56.539 80.3408 56.5341C80.3445 56.5297 80.3495 56.5237 80.3538 56.5173L80.3018 56.4827C80.2997 56.4857 80.297 56.4891 80.2928 56.4941C80.2891 56.4985 80.2841 56.5045 80.2799 56.5108L80.3319 56.5455ZM83.6371 47.5C83.6371 44.0642 82.4031 40.9197 80.3548 38.4799L80.3069 38.5201C82.3462 40.9491 83.5746 44.0795 83.5746 47.5H83.6371ZM80.3569 38.4827C80.3518 38.475 80.3456 38.469 80.342 38.4654C80.3378 38.4612 80.3361 38.4594 80.335 38.4577L80.283 38.4923C80.2881 38.5 80.2943 38.506 80.2978 38.5096C80.3021 38.5138 80.3038 38.5156 80.3049 38.5173L80.3569 38.4827ZM80.3329 38.4548C80.2987 38.4144 80.2669 38.3763 80.232 38.3383L80.186 38.3805C80.2198 38.4174 80.2506 38.4543 80.2852 38.4952L80.3329 38.4548ZM80.2334 38.3399C80.2266 38.3313 80.2198 38.3237 80.2136 38.3167C80.2073 38.3096 80.2016 38.3032 80.1959 38.2961L80.1471 38.3351C80.1539 38.3437 80.1607 38.3513 80.1669 38.3583C80.1732 38.3654 80.1789 38.3718 80.1846 38.3789L80.2334 38.3399ZM80.1951 38.2951L80.0669 38.1482L80.0198 38.1893L80.148 38.3362L80.1951 38.2951ZM80.0655 38.1467L80.0624 38.1435L80.0182 38.1877L80.0213 38.1908L80.0655 38.1467ZM80.0637 38.1449C80.0401 38.1182 80.0157 38.0914 79.9915 38.0649C79.9672 38.0383 79.9432 38.0119 79.9199 37.9856L79.8731 38.0269C79.8967 38.0537 79.9211 38.0805 79.9453 38.107C79.9695 38.1336 79.9936 38.16 80.0168 38.1863L80.0637 38.1449ZM79.9186 37.9842L79.9155 37.981L79.8713 38.0252L79.8744 38.0283L79.9186 37.9842ZM79.9161 37.9817C79.8162 37.8755 79.7159 37.7689 79.6124 37.6654L79.5682 37.7096C79.6709 37.8123 79.7706 37.9182 79.8706 38.0245L79.9161 37.9817ZM79.6124 37.6654L79.6092 37.6623L79.565 37.7065L79.5682 37.7096L79.6124 37.6654ZM79.6092 37.6623L79.4592 37.5123L79.415 37.5565L79.565 37.7065L79.6092 37.6623ZM79.4592 37.5123L79.4499 37.5029L79.4057 37.5471L79.415 37.5565L79.4592 37.5123ZM79.4499 37.5029C79.4025 37.4556 79.3553 37.4115 79.3085 37.3678L79.2658 37.4135C79.3127 37.4573 79.3592 37.5007 79.4057 37.5471L79.4499 37.5029ZM79.3092 37.3685C79.2937 37.353 79.2771 37.3364 79.2571 37.3197L79.2171 37.3678C79.2346 37.3823 79.2493 37.397 79.265 37.4127L79.3092 37.3685ZM79.2592 37.3217C79.2273 37.2897 79.1955 37.2611 79.1643 37.233L79.1225 37.2795C79.1538 37.3077 79.1845 37.3353 79.215 37.3658L79.2592 37.3217ZM79.1655 37.2342C79.1604 37.229 79.1531 37.2227 79.149 37.2189C79.144 37.2143 79.1402 37.2103 79.1371 37.2062L79.0871 37.2437C79.0935 37.2522 79.1005 37.2592 79.1065 37.2647C79.1133 37.2711 79.117 37.2741 79.1213 37.2783L79.1655 37.2342ZM79.1334 37.2021C76.6341 34.8844 73.2859 33.4688 69.6059 33.4688V33.5312C73.2696 33.5312 76.6027 34.9406 79.0909 37.2479L79.1334 37.2021ZM69.6059 33.4688C65.9258 33.4688 62.5777 34.8844 60.0753 37.2021L60.1177 37.2479C62.6091 34.9406 65.9422 33.5312 69.6059 33.5312V33.4688ZM60.0744 37.2029C60.0702 37.2071 60.0665 37.2102 60.0596 37.2166C60.0537 37.2221 60.0466 37.229 60.0403 37.2375L60.0903 37.275C60.0933 37.271 60.0972 37.267 60.1021 37.2624C60.1062 37.2586 60.1135 37.2522 60.1186 37.2471L60.0744 37.2029ZM60.0443 37.233C60.0124 37.2618 59.9805 37.2936 59.9494 37.3248L59.9936 37.369C60.025 37.3376 60.0556 37.307 60.0862 37.2795L60.0443 37.233ZM59.9494 37.3248C59.9337 37.3405 59.919 37.3552 59.9015 37.3697L59.9415 37.4178C59.9615 37.4011 59.9781 37.3845 59.9936 37.369L59.9494 37.3248ZM59.9002 37.3709C59.8765 37.393 59.8529 37.4158 59.8295 37.4385C59.806 37.4612 59.7828 37.4836 59.7596 37.5053L59.8022 37.551C59.8259 37.5289 59.8495 37.506 59.8729 37.4834C59.8964 37.4607 59.9196 37.4383 59.9428 37.4166L59.9002 37.3709ZM59.7588 37.506L59.7494 37.5154L59.7936 37.5596L59.803 37.5502L59.7588 37.506ZM59.7494 37.5154L59.5994 37.6654L59.6436 37.7096L59.7936 37.5596L59.7494 37.5154ZM59.5994 37.6654L59.5963 37.6685L59.6405 37.7127L59.6436 37.7096L59.5994 37.6654ZM59.5963 37.6685C59.4928 37.772 59.3924 37.8786 59.2925 37.9848L59.338 38.0277C59.4381 37.9214 59.5377 37.8155 59.6405 37.7127L59.5963 37.6685ZM59.2932 37.9842L59.29 37.9873L59.3342 38.0315L59.3374 38.0283L59.2932 37.9842ZM59.2894 37.988C59.239 38.0415 59.1918 38.095 59.1449 38.1481L59.1918 38.1894C59.2387 38.1362 59.2853 38.0835 59.3349 38.0308L59.2894 37.988ZM59.1463 38.1467L59.1432 38.1498L59.1874 38.194L59.1905 38.1908L59.1463 38.1467ZM59.1424 38.1506C59.0982 38.1979 59.054 38.2485 59.0129 38.299L59.0614 38.3385C59.1015 38.289 59.1448 38.2396 59.1881 38.1932L59.1424 38.1506ZM59.0127 38.2992C59.0071 38.3063 59.0013 38.3128 58.995 38.3199C58.9888 38.3268 58.9821 38.3344 58.9752 38.343L59.024 38.382C59.0297 38.3749 59.0354 38.3685 59.0417 38.3614C59.0479 38.3544 59.0547 38.3468 59.0615 38.3383L59.0127 38.2992ZM58.9766 38.3414C58.9589 38.3607 58.942 38.3808 58.9257 38.4002C58.9092 38.4198 58.8932 38.4388 58.8766 38.457L58.9227 38.4992C58.9404 38.4799 58.9572 38.4599 58.9736 38.4404C58.99 38.4208 59.006 38.4018 59.0227 38.3836L58.9766 38.3414ZM58.8736 38.4608C58.8725 38.4625 58.8708 38.4643 58.8666 38.4685C58.863 38.4721 58.8569 38.4781 58.8518 38.4858L58.9038 38.5205C58.9049 38.5188 58.9065 38.517 58.9108 38.5127C58.9144 38.5092 58.9205 38.5031 58.9256 38.4955L58.8736 38.4608ZM58.8538 38.483C56.8086 40.9197 55.5746 44.0643 55.5746 47.5H55.6371C55.6371 44.0795 56.8656 40.949 58.9017 38.5232L58.8538 38.483ZM55.5746 47.5C55.5746 50.9376 57.079 53.8277 58.8548 56.5172L58.907 56.4828C57.1329 53.796 55.6371 50.9187 55.6371 47.5H55.5746ZM58.9121 56.4993C58.8864 55.3934 58.95 54.7941 59.0203 54.459C59.0554 54.2917 59.0921 54.1904 59.1201 54.1247C59.1344 54.091 59.1459 54.0679 59.1555 54.0468C59.1643 54.0273 59.1722 54.0079 59.1734 53.9883C59.1748 53.9662 59.1677 53.9475 59.1552 53.9293C59.1434 53.9122 59.1256 53.8936 59.1028 53.871C59.0563 53.825 58.9821 53.7554 58.8684 53.6308C58.6411 53.3818 58.2563 52.913 57.6319 51.9826L57.58 52.0174C58.2056 52.9495 58.5923 53.421 58.8223 53.673C58.9373 53.799 59.0131 53.8701 59.0588 53.9154C59.0821 53.9385 59.0958 53.9532 59.1037 53.9647C59.1107 53.9749 59.1113 53.98 59.1111 53.9844C59.1106 53.9912 59.1075 54.001 59.0985 54.0211C59.0902 54.0394 59.0771 54.0661 59.0626 54.1001C59.0329 54.1697 58.995 54.275 58.9591 54.4462C58.8875 54.7879 58.8238 55.3925 58.8496 56.5007L58.9121 56.4993ZM58.8565 56.5195C58.863 56.5277 58.8993 56.5711 58.935 56.6138C58.9712 56.657 59.0068 56.6996 59.0127 56.707L59.0615 56.668C59.055 56.6598 59.0187 56.6164 58.983 56.5737C58.9468 56.5305 58.9112 56.4879 58.9053 56.4805L58.8565 56.5195ZM59.0136 56.708L59.1417 56.8549L59.1888 56.8138L59.0607 56.667L59.0136 56.708ZM59.134 56.8344C59.134 56.8409 59.1358 56.8471 59.1389 56.8523C59.1403 56.8546 59.1418 56.8564 59.1428 56.8576C59.1437 56.8586 59.1446 56.8595 59.1447 56.8596C59.1455 56.8604 59.1431 56.8582 59.1411 56.8548C59.1385 56.8506 59.1371 56.8456 59.1371 56.8406H59.1996C59.1996 56.8341 59.1978 56.8279 59.1947 56.8227C59.1933 56.8204 59.1919 56.8186 59.1908 56.8174C59.1899 56.8164 59.189 56.8155 59.1889 56.8154C59.1881 56.8146 59.1905 56.8168 59.1925 56.8202C59.1951 56.8244 59.1965 56.8294 59.1965 56.8344H59.134ZM59.1449 56.8613C59.1917 56.9143 59.2392 56.9682 59.29 57.019L59.3342 56.9748C59.285 56.9256 59.2388 56.8732 59.1918 56.82L59.1449 56.8613ZM59.29 57.019L59.2932 57.0221L59.3374 56.9779L59.3342 56.9748L59.29 57.019ZM59.2925 57.0214C59.3925 57.1276 59.4926 57.2341 59.5928 57.3374L59.6377 57.2939C59.5379 57.1909 59.438 57.0849 59.338 56.9786L59.2925 57.0214ZM59.5932 57.3377L59.5963 57.3408L59.6405 57.2967L59.6374 57.2935L59.5932 57.3377ZM59.5963 57.3408C59.6453 57.3898 59.6935 57.4411 59.7439 57.4884L59.7866 57.4428C59.7371 57.3964 59.6915 57.3477 59.6405 57.2967L59.5963 57.3408ZM59.7464 57.4905L60.4526 58.0249L60.4904 57.9751L59.7841 57.4407L59.7464 57.4905ZM60.4715 58C60.4715 57.9688 60.4715 57.9688 60.4714 57.9688C60.4713 57.9688 60.4712 57.9688 60.4711 57.9688C60.4708 57.9688 60.4705 57.9688 60.4699 57.9688C60.4689 57.9688 60.4674 57.9688 60.4654 57.9688C60.4613 57.9688 60.4553 57.9688 60.4475 57.9688C60.4317 57.9689 60.4084 57.9691 60.3781 57.9694C60.3176 57.97 60.2293 57.9712 60.1182 57.9736C59.896 57.9785 59.5826 57.9883 59.2174 58.0079C58.4873 58.0469 57.5493 58.1252 56.7204 58.2818C56.3059 58.3601 55.9178 58.4582 55.5961 58.5812C55.2753 58.7038 55.0168 58.8527 54.8655 59.0347C54.7895 59.1262 54.7401 59.2266 54.7243 59.3365C54.7084 59.4464 54.7264 59.5634 54.7815 59.6875C54.8911 59.9345 55.1488 60.2119 55.5877 60.5254L55.624 60.4746C55.188 60.1631 54.9414 59.8937 54.8386 59.6621C54.7875 59.547 54.7722 59.4418 54.7861 59.3454C54.8001 59.249 54.8436 59.159 54.9136 59.0747C55.0545 58.9051 55.3008 58.761 55.6185 58.6395C55.9353 58.5184 56.3195 58.4212 56.732 58.3432C57.5569 58.1873 58.4917 58.1093 59.2207 58.0703C59.5851 58.0508 59.8979 58.041 60.1196 58.0361C60.2304 58.0337 60.3184 58.0325 60.3787 58.0319C60.4089 58.0316 60.4321 58.0314 60.4478 58.0313C60.4556 58.0313 60.4615 58.0313 60.4655 58.0313C60.4675 58.0313 60.469 58.0313 60.47 58.0313C60.4705 58.0312 60.4709 58.0312 60.4711 58.0312C60.4713 58.0312 60.4714 58.0312 60.4714 58.0312C60.4715 58.0312 60.4715 58.0312 60.4715 58ZM55.6059 60.5C55.6259 60.524 55.6259 60.524 55.6259 60.524C55.6259 60.524 55.6259 60.524 55.626 60.5239C55.6261 60.5238 55.6262 60.5237 55.6265 60.5235C55.6269 60.5231 55.6276 60.5226 55.6286 60.5218C55.6306 60.5202 55.6335 60.5178 55.6375 60.5147C55.6456 60.5084 55.6578 60.499 55.6742 60.4869C55.707 60.4627 55.7566 60.4277 55.8236 60.3845C55.9576 60.2983 56.1609 60.1797 56.4371 60.0513C56.9895 59.7946 57.834 59.4983 58.9999 59.3423C61.3315 59.0303 64.9507 59.2789 70.0933 61.5286L70.1184 61.4714C64.9673 59.218 61.3365 58.9666 58.9916 59.2804C57.8192 59.4372 56.9687 59.7353 56.4108 59.9947C56.1318 60.1243 55.9261 60.2443 55.7898 60.332C55.7217 60.3759 55.6709 60.4117 55.6371 60.4366C55.6202 60.4491 55.6075 60.4588 55.599 60.4655C55.5947 60.4688 55.5915 60.4714 55.5893 60.4732C55.5882 60.4741 55.5874 60.4747 55.5868 60.4752C55.5865 60.4754 55.5863 60.4756 55.5862 60.4758C55.5861 60.4758 55.586 60.4759 55.586 60.4759C55.5859 60.476 55.5859 60.476 55.6059 60.5ZM70.1161 61.5295C76.8633 59.1977 80.1088 59.1717 81.9776 59.4376C82.4452 59.5041 82.827 59.5889 83.1572 59.661C83.4868 59.7329 83.7666 59.7925 84.0273 59.8072C84.2889 59.822 84.532 59.7916 84.7888 59.6836C85.0451 59.5758 85.3134 59.3915 85.6271 59.1011L85.5846 59.0552C85.2741 59.3428 85.0118 59.522 84.7646 59.626C84.5179 59.7297 84.2846 59.7591 84.0308 59.7448C83.776 59.7305 83.5012 59.6721 83.1705 59.5999C82.8405 59.5279 82.4566 59.4426 81.9864 59.3757C80.1044 59.108 76.8484 59.1367 70.0957 61.4705L70.1161 61.5295ZM85.6271 59.1011C85.6927 59.0403 85.7289 58.9766 85.7306 58.9101C85.7323 58.8436 85.6993 58.7823 85.6442 58.7267C85.5351 58.6169 85.3267 58.5164 85.0563 58.4236C84.513 58.2371 83.6978 58.0748 82.8569 57.9384C82.0154 57.8019 81.1462 57.6911 80.494 57.608C80.1678 57.5665 79.8962 57.5319 79.7093 57.5046C79.6158 57.4908 79.5442 57.479 79.4978 57.4692C79.4742 57.4642 79.4588 57.46 79.4505 57.4568C79.4455 57.4549 79.4469 57.4547 79.4497 57.4574C79.4513 57.4588 79.4567 57.4643 79.4578 57.474C79.459 57.4852 79.4537 57.4933 79.4499 57.497L79.4056 57.453C79.4003 57.4583 79.3942 57.4681 79.3957 57.481C79.397 57.4924 79.4034 57.4997 79.4069 57.5029C79.4137 57.5093 79.4224 57.513 79.4281 57.5152C79.4414 57.5202 79.4609 57.5252 79.4848 57.5303C79.5333 57.5406 79.6066 57.5527 79.7003 57.5664C79.8879 57.5939 80.1602 57.6285 80.4861 57.67C81.1384 57.7531 82.0066 57.8638 82.8469 58.0001C83.6877 58.1365 84.4982 58.2981 85.036 58.4827C85.3061 58.5754 85.5019 58.6721 85.5998 58.7708C85.6482 58.8195 85.6693 58.8653 85.6682 58.9085C85.667 58.9518 85.6434 59.0007 85.5846 59.0552L85.6271 59.1011ZM79.4499 57.4971L79.4592 57.4877L79.415 57.4435L79.4057 57.4529L79.4499 57.4971ZM79.4592 57.4877C79.5082 57.4387 79.5595 57.3906 79.6068 57.3401L79.5612 57.2974C79.5147 57.3469 79.466 57.3925 79.415 57.4435L79.4592 57.4877ZM79.6061 57.3408L79.6092 57.3377L79.565 57.2935L79.5619 57.2967L79.6061 57.3408ZM79.6092 57.3377C79.7128 57.2342 79.8131 57.1275 79.9102 57.0211L79.864 56.9789C79.7674 57.085 79.6677 57.1908 79.565 57.2935L79.6092 57.3377ZM79.9092 57.0221L79.9124 57.019L79.8682 56.9748L79.865 56.9779L79.9092 57.0221ZM79.9137 57.0176C79.9367 56.9914 79.9606 56.966 79.9849 56.9401C80.0091 56.9144 80.0336 56.8883 80.0574 56.8613L80.0106 56.82C79.9875 56.8461 79.9636 56.8715 79.9394 56.8974C79.9152 56.9231 79.8906 56.9492 79.8668 56.9762L79.9137 57.0176ZM80.0653 56.8406C80.0653 56.8456 80.0639 56.8506 80.0613 56.8548C80.0593 56.8582 80.0569 56.8604 80.0577 56.8596C80.0578 56.8595 80.0586 56.8586 80.0596 56.8576C80.0606 56.8564 80.062 56.8546 80.0634 56.8523C80.0666 56.8471 80.0684 56.8409 80.0684 56.8344H80.0059C80.0059 56.8294 80.0073 56.8244 80.0098 56.8202C80.0118 56.8168 80.0143 56.8146 80.0135 56.8154C80.0134 56.8155 80.0125 56.8164 80.0116 56.8174C80.0105 56.8186 80.0091 56.8204 80.0077 56.8227C80.0046 56.8279 80.0028 56.8341 80.0028 56.8406H80.0653ZM80.06 56.8557C80.1042 56.8083 80.1484 56.7578 80.1895 56.7072L80.141 56.6678C80.1009 56.7172 80.0576 56.7667 80.0143 56.8131L80.06 56.8557ZM80.1897 56.707C80.1953 56.6999 80.201 56.6935 80.2074 56.6864C80.2135 56.6794 80.2203 56.6718 80.2272 56.6633L80.1784 56.6242C80.1727 56.6313 80.167 56.6378 80.1606 56.6449C80.1545 56.6518 80.1477 56.6594 80.1409 56.668L80.1897 56.707ZM80.2255 56.6651C80.2612 56.6271 80.296 56.5881 80.3297 56.5483L80.282 56.5079C80.249 56.5469 80.2149 56.5851 80.18 56.6224L80.2255 56.6651ZM80.4052 52.0597C79.9751 53.0757 79.4079 54.017 78.716 54.871L78.7645 54.9103C79.4601 54.0518 80.0304 53.1055 80.4628 52.0841L80.4052 52.0597ZM78.7607 54.867C77.9776 54.1902 77.1215 53.603 76.2081 53.1162L76.1787 53.1713C77.0879 53.6559 77.9403 54.2405 78.7198 54.9143L78.7607 54.867ZM76.2237 53.1513C76.5868 51.6834 76.812 50.0719 76.8715 48.3761L76.809 48.3739C76.7497 50.0656 76.525 51.6728 76.163 53.1362L76.2237 53.1513ZM76.8403 48.4062H81.3246V48.3438H76.8403V48.4062ZM81.2935 48.3727C81.2 49.6474 80.9008 50.8847 80.4052 52.0597L80.4628 52.084C80.961 50.9028 81.2618 49.6588 81.3558 48.3773L81.2935 48.3727ZM81.3246 46.5938H76.8403V46.6562H81.3246V46.5938ZM76.8715 46.6239C76.812 44.9281 76.5868 43.3166 76.2237 41.8487L76.163 41.8638C76.525 43.3272 76.7497 44.9344 76.809 46.6261L76.8715 46.6239ZM76.2081 41.8838C77.1258 41.3952 77.9808 40.8064 78.7607 40.133L78.7198 40.0857C77.9434 40.7561 77.0922 41.3423 76.1787 41.8287L76.2081 41.8838ZM78.716 40.1291C80.22 41.9803 81.1197 44.2485 81.2935 46.6273L81.3558 46.6227C81.1811 44.2311 80.2766 41.9508 78.7645 40.0897L78.716 40.1291ZM74.1656 36.7007C75.4029 37.2243 76.528 37.9473 77.5191 38.8574L77.5614 38.8114C76.565 37.8964 75.4338 37.1695 74.1899 36.6431L74.1656 36.7007ZM77.52 38.8106C76.9442 39.3009 76.3244 39.737 75.6684 40.1135L75.6996 40.1677C76.3588 39.7893 76.9818 39.351 77.5605 38.8582L77.52 38.8106ZM75.7135 40.1303C75.222 38.7217 74.5926 37.4968 73.859 36.5157L73.809 36.5531C74.538 37.5282 75.1647 38.7471 75.6545 40.1509L75.7135 40.1303ZM73.8229 36.5636C73.9381 36.6072 74.0534 36.6539 74.1657 36.7007L74.1898 36.643C74.0771 36.5961 73.9611 36.5491 73.8451 36.5051L73.8229 36.5636ZM71.3272 58.541C71.0416 58.7646 70.7567 58.9348 70.4693 59.0491L70.4924 59.1072C70.7864 58.9902 71.0764 58.8167 71.3658 58.5902L71.3272 58.541ZM70.5121 59.0781V53.2812H70.4496V59.0781H70.5121ZM70.4787 53.3124C71.7155 53.3987 72.9317 53.6741 74.085 54.1291L74.108 54.0709C72.9487 53.6136 71.7262 53.3368 70.4831 53.2501L70.4787 53.3124ZM74.0669 54.09C73.808 54.8574 73.5087 55.5651 73.1628 56.2039L73.2177 56.2336C73.5656 55.5912 73.8663 54.8801 74.1261 54.11L74.0669 54.09ZM73.1627 56.204C72.6203 57.2139 71.9853 58.0195 71.3271 58.5411L71.3659 58.5901C72.0327 58.0617 72.6727 57.2486 73.2178 56.2335L73.1627 56.204ZM73.1627 38.796C73.5056 39.4381 73.808 40.1458 74.0669 40.91L74.1261 40.89C73.8662 40.1229 73.5625 39.4119 73.2178 38.7665L73.1627 38.796ZM74.085 40.8709C72.9317 41.3259 71.7155 41.6013 70.4787 41.6876L70.4831 41.7499C71.7262 41.6632 72.9487 41.3864 74.108 40.9291L74.085 40.8709ZM70.5121 41.7188V35.925H70.4496V41.7188H70.5121ZM70.4692 35.954C70.7537 36.0684 71.0417 36.2356 71.3271 36.462L71.3659 36.413C71.0763 36.1832 70.7831 36.0128 70.4925 35.896L70.4692 35.954ZM71.3272 36.462C71.9853 36.9805 72.6203 37.786 73.1627 38.796L73.2178 38.7665C72.6727 37.7515 72.0327 36.9383 71.3658 36.413L71.3272 36.462ZM70.5121 51.5281V48.375H70.4496V51.5281H70.5121ZM70.4809 48.4062H75.0903V48.3438H70.4809V48.4062ZM75.059 48.3739C75.0091 49.7533 74.8375 51.092 74.5504 52.3619L74.6114 52.3756C74.8993 51.1018 75.0714 49.7592 75.1215 48.3761L75.059 48.3739ZM74.5506 52.3612L74.5412 52.3987L74.6018 52.4138L74.6112 52.3763L74.5506 52.3612ZM74.5826 52.377C73.2682 51.8786 71.8859 51.5819 70.4828 51.4969L70.479 51.5593C71.8759 51.6439 73.2519 51.9393 74.5604 52.4355L74.5826 52.377ZM70.5121 46.625V43.4719H70.4496V46.625H70.5121ZM70.4828 43.5031C71.9172 43.4154 73.2953 43.1116 74.5826 42.623L74.5604 42.5645C73.2789 43.0509 71.907 43.3534 70.479 43.4407L70.4828 43.5031ZM74.5412 42.6013L74.5506 42.6388L74.6112 42.6237L74.6018 42.5862L74.5412 42.6013ZM74.5504 42.6381C74.8375 43.908 75.0091 45.2436 75.059 46.6261L75.1215 46.6239C75.0714 45.2376 74.8993 43.8982 74.6114 42.6244L74.5504 42.6381ZM75.0903 46.5938H70.4809V46.6562H75.0903V46.5938ZM68.6996 48.375V51.5281H68.7621V48.375H68.6996ZM68.729 51.4969C67.2945 51.5846 65.9164 51.8884 64.6292 52.377L64.6513 52.4355C65.9328 51.9491 67.3047 51.6466 68.7328 51.5593L68.729 51.4969ZM64.6706 52.3987L64.6612 52.3612L64.6006 52.3763L64.6099 52.4138L64.6706 52.3987ZM64.6614 52.3619C64.3743 51.092 64.2027 49.7564 64.1527 48.3739L64.0903 48.3761C64.1403 49.7624 64.3125 51.1018 64.6004 52.3756L64.6614 52.3619ZM64.1215 48.4062H68.7309V48.3438H64.1215V48.4062ZM64.1527 46.6261C64.2027 45.2467 64.3743 43.908 64.6614 42.6381L64.6004 42.6244C64.3124 43.8982 64.1403 45.2408 64.0903 46.6239L64.1527 46.6261ZM64.6612 42.6388L64.6706 42.6013L64.6099 42.5862L64.6006 42.6237L64.6612 42.6388ZM64.6292 42.623C65.9164 43.1116 67.2914 43.4154 68.729 43.5031L68.7328 43.4407C67.3016 43.3534 65.9328 43.0509 64.6513 42.5645L64.6292 42.623ZM68.6996 43.4719V46.625H68.7621V43.4719H68.6996ZM68.7309 46.5938H64.1215V46.6562H68.7309V46.5938ZM68.6996 53.2812V59.075H68.7621V53.2812H68.6996ZM68.7425 59.046C68.4581 58.9316 68.17 58.7644 67.8847 58.538L67.8458 58.587C68.1355 58.8168 68.4287 58.9872 68.7192 59.104L68.7425 59.046ZM67.8846 58.538C67.2264 58.0195 66.5883 57.2108 66.0459 56.2008L65.9908 56.2304C66.536 57.2454 67.1791 58.0618 67.8459 58.587L67.8846 58.538ZM66.0459 56.2009C65.7031 55.5588 65.4006 54.851 65.1417 54.0868L65.0825 54.1069C65.3424 54.874 65.6462 55.5849 65.9908 56.2303L66.0459 56.2009ZM65.1235 54.126C66.2831 53.6709 67.4893 53.3997 68.7331 53.3124L68.7287 53.2501C67.4787 53.3378 66.2662 53.6104 65.1007 54.0678L65.1235 54.126ZM68.7331 41.6876C67.4963 41.6013 66.28 41.3259 65.1267 40.8709L65.1038 40.9291C66.263 41.3864 67.4855 41.6632 68.7287 41.7499L68.7331 41.6876ZM65.1449 40.91C65.4038 40.1426 65.7031 39.4349 66.049 38.7961L65.994 38.7664C65.6462 39.4088 65.3455 40.1199 65.0856 40.89L65.1449 40.91ZM66.049 38.796C66.5915 37.786 67.2264 36.9774 67.8877 36.459L67.8491 36.4098C67.1791 36.9351 66.539 37.7515 65.994 38.7665L66.049 38.796ZM67.8876 36.459C68.1733 36.2354 68.4582 36.0652 68.7456 35.9509L68.7225 35.8928C68.4285 36.0098 68.1385 36.1833 67.8491 36.4098L67.8876 36.459ZM68.7028 35.9219V41.7188H68.7653V35.9219H68.7028ZM68.734 41.6875H68.7309V41.75H68.734V41.6875ZM65.0457 36.7008C65.1617 36.6538 65.2736 36.6072 65.3888 36.5636L65.3667 36.5051C65.2506 36.5491 65.1375 36.5962 65.0223 36.6429L65.0457 36.7008ZM65.3527 36.5157C64.6192 37.4968 63.9897 38.7217 63.4982 40.1303L63.5573 40.1509C64.047 38.7471 64.6738 37.5282 65.4028 36.5531L65.3527 36.5157ZM63.5433 40.1135C62.8887 39.7395 62.2684 39.3031 61.6918 38.8106L61.6512 38.8581C62.2308 39.3532 62.8543 39.7918 63.5122 40.1678L63.5433 40.1135ZM61.6926 38.8574C62.6838 37.9473 63.8088 37.2243 65.0462 36.7007L65.0218 36.6431C63.7779 37.1695 62.6468 37.8964 61.6504 38.8114L61.6926 38.8574ZM58.8065 42.9403C59.2366 41.9243 59.8039 40.983 60.4958 40.129L60.4472 40.0897C59.7516 40.9482 59.1814 41.8945 58.749 42.9159L58.8065 42.9403ZM60.4511 40.133C61.2309 40.8064 62.086 41.3952 63.0037 41.8838L63.0331 41.8287C62.1195 41.3423 61.2683 40.7561 60.4919 40.0857L60.4511 40.133ZM62.988 41.8487C62.625 43.3166 62.3997 44.9281 62.3403 46.6239L62.4027 46.6261C62.462 44.9344 62.6868 43.3272 63.0487 41.8638L62.988 41.8487ZM62.3715 46.5938H57.8871V46.6562H62.3715V46.5938ZM57.9183 46.6273C58.0118 45.3526 58.311 44.1153 58.8065 42.9403L58.749 42.916C58.2508 44.0972 57.95 45.3412 57.856 46.6227L57.9183 46.6273ZM57.8871 48.4062H62.3715V48.3438H57.8871V48.4062ZM62.3403 48.3761C62.3997 50.0719 62.625 51.6834 62.988 53.1513L63.0487 53.1362C62.6868 51.6728 62.462 50.0656 62.4027 48.3739L62.3403 48.3761ZM63.0037 53.1162C62.0903 53.603 61.2341 54.1902 60.4511 54.867L60.4919 54.9143C61.2715 54.2405 62.1238 53.6559 63.0331 53.1713L63.0037 53.1162ZM60.4958 54.8709C58.9918 53.0197 58.0921 50.7515 57.9183 48.3727L57.856 48.3773C58.0307 50.7689 58.9352 53.0492 60.4472 54.9103L60.4958 54.8709ZM65.0462 58.2993C63.8088 57.7757 62.6838 57.0527 61.6926 56.1426L61.6504 56.1886C62.6468 57.1036 63.7779 57.8305 65.0218 58.3569L65.0462 58.2993ZM61.6918 56.1894C62.2684 55.6969 62.8887 55.2637 63.5434 54.8865L63.5122 54.8323C62.8543 55.2113 62.2309 55.6468 61.6512 56.1419L61.6918 56.1894ZM63.4982 54.8697C63.9897 56.2783 64.6192 57.5032 65.3527 58.4843L65.4028 58.4469C64.6738 57.4718 64.047 56.2529 63.5573 54.8491L63.4982 54.8697ZM65.3888 58.4364C65.2736 58.3928 65.1584 58.3461 65.046 58.2993L65.022 58.357C65.1347 58.4039 65.2506 58.4509 65.3667 58.4949L65.3888 58.4364ZM74.166 58.2992C74.05 58.3462 73.9381 58.3928 73.8229 58.4364L73.8451 58.4949C73.9611 58.4509 74.0742 58.4038 74.1895 58.3571L74.166 58.2992ZM73.859 58.4843C74.5926 57.5032 75.222 56.2783 75.7135 54.8697L75.6545 54.8491C75.1647 56.2529 74.538 57.4718 73.809 58.4469L73.859 58.4843ZM75.6685 54.8865C76.323 55.2605 76.9433 55.6969 77.52 56.1894L77.5606 56.1419C76.9809 55.6468 76.3575 55.2082 75.6995 54.8322L75.6685 54.8865ZM77.5191 56.1426C76.5335 57.0489 75.3991 57.7785 74.1656 58.2993L74.1899 58.3569C75.43 57.8333 76.5705 57.0998 77.5614 56.1886L77.5191 56.1426ZM57.5763 52.0099L58.5763 55.0099L58.6356 54.9901L57.6356 51.9901L57.5763 52.0099ZM58.5752 55.0056L58.8501 56.5056L58.9116 56.4944L58.6367 54.9944L58.5752 55.0056ZM80.3517 56.5201C81.3783 55.2992 82.2002 53.9017 82.7651 52.3796L82.7066 52.3579C82.1441 53.8732 81.3259 55.2644 80.3038 56.4799L80.3517 56.5201ZM82.7651 52.3796C83.3292 50.8601 83.6371 49.2164 83.6371 47.5H83.5746C83.5746 49.2088 83.268 50.8452 82.7066 52.3579L82.7651 52.3796Z" fill="#003DE8" mask="url(#path-8-inside-1_153_604)"/>
<path d="M115.75 0.444336C117.488 0.444502 118.806 1.76224 118.806 3.5V16.333C118.806 18.0708 117.488 19.3885 115.75 19.3887H102.472V27.5557H94.9429L94.8208 27.6543L88.1948 33.0176V27.5557H86.5835C84.8456 27.5557 83.5278 26.2379 83.5278 24.5V11.667C83.5278 9.92912 84.8456 8.61133 86.5835 8.61133H101.306V10.0557H86.5835C86.1325 10.0557 85.7221 10.2081 85.4233 10.5068C85.1247 10.8056 84.9722 11.2161 84.9722 11.667V24.5C84.9722 24.951 85.1246 25.3614 85.4233 25.6602C85.7221 25.9589 86.1325 26.1113 86.5835 26.1113H89.6392V29.9629L90.3579 29.3994L94.5532 26.1113H101.028V17.9443H115.75C116.201 17.9443 116.612 17.7918 116.911 17.4932C117.209 17.1945 117.361 16.7838 117.361 16.333V3.5C117.361 3.04908 117.209 2.63857 116.911 2.33984C116.612 2.04118 116.201 1.88875 115.75 1.88867H98.9722V5.38867H97.5278V0.444336H115.75Z" fill="#003DE8" stroke="#003DE8" stroke-width="0.888889"/>
<path d="M94.3271 13.2778L97.9541 22.772H96.1074L95.5166 21.1938L95.4082 20.9058H91.1758L91.0674 21.1938L90.4756 22.772H88.623L92.1426 13.2778H94.3271ZM92.8105 15.6138L91.6436 19.23L91.4561 19.811H95.0107L94.8232 19.23L93.6562 15.6138L93.2334 14.3022L92.8105 15.6138Z" fill="#003DE8" stroke="#003DE8" stroke-width="0.888889"/>
<path d="M109.472 3.94434V6.27734H112.972V7C112.972 9.92012 111.966 11.9055 110.653 13.2188L110.159 13.7129L110.815 13.9512C111.495 14.1986 112.141 14.3216 112.616 14.3828C112.748 14.3999 112.868 14.411 112.972 14.4199V15.8721C111.87 15.797 110.322 15.456 108.949 14.7695L108.75 14.6699L108.551 14.7695C107.163 15.4634 105.69 15.8036 104.528 15.874V14.4287C105.021 14.397 105.829 14.2942 106.699 13.9463L107.325 13.6953L106.848 13.2188C106.091 12.4614 105.492 11.5366 105.054 10.3613H106.605C107.099 11.356 107.782 12.1385 108.465 12.708L108.741 12.9375L109.023 12.7178C110.162 11.8319 111.161 10.4421 111.409 8.21582L111.463 7.72266H104.528V6.27734H108.028V3.94434H109.472Z" fill="#003DE8" stroke="#003DE8" stroke-width="0.888889"/>
<path d="M58.75 64.8333L64.25 63.5L69.75 67L75.25 64L80.75 64.5" stroke="#003DE8" stroke-width="1.5"/>
<path d="M22.9678 122.321L23.7238 123.721L18.5718 126.885C17.7318 127.128 16.9198 127.286 16.1358 127.361C15.3705 127.454 14.5398 127.501 13.6438 127.501C11.4971 127.501 9.59314 127.025 7.93181 126.073C6.28914 125.121 5.01048 123.814 4.09581 122.153C3.18114 120.473 2.72381 118.569 2.72381 116.441C2.72381 114.257 3.40514 112.241 4.76781 110.393C6.14914 108.526 7.85714 107.061 9.89181 105.997C11.9265 104.914 13.8585 104.373 15.6878 104.373C16.7891 104.373 18.0771 104.513 19.5518 104.793C21.0451 105.073 22.1278 105.372 22.7998 105.689V111.597H21.0918C19.3185 108.573 16.9758 107.061 14.0638 107.061C12.7758 107.061 11.6091 107.406 10.5638 108.097C9.51848 108.788 8.69714 109.749 8.09981 110.981C7.50248 112.194 7.20381 113.566 7.20381 115.097C7.20381 116.87 7.49314 118.485 8.07181 119.941C8.65048 121.397 9.53714 122.564 10.7318 123.441C11.9451 124.318 13.4385 124.757 15.2118 124.757C15.9771 124.757 16.6025 124.738 17.0878 124.701C17.5918 124.664 18.1705 124.552 18.8238 124.365V118.093L14.4558 116.973L15.1558 115.573H25.6278V116.721L22.9678 118.877V122.321Z" fill="#003DE8"/>
<path d="M77.7607 115.041C79.142 115.489 80.234 116.208 81.0367 117.197C81.8394 118.168 82.2407 119.278 82.2407 120.529C82.2407 121.705 81.7554 122.816 80.7847 123.861C79.814 124.888 78.6007 125.709 77.1447 126.325C75.6887 126.941 74.3074 127.249 73.0007 127.249C72.0674 127.249 71.1527 127.202 70.2567 127.109C68.7634 127.016 67.606 126.969 66.7847 126.969H62.9487V125.821L65.5807 123.749V107.229L62.6127 106.333L63.3127 104.933H66.7567C68.4554 104.933 70.126 104.877 71.7687 104.765C73.038 104.69 73.9714 104.653 74.5687 104.653C75.8754 104.653 77.0234 104.896 78.0127 105.381C79.002 105.866 79.7674 106.529 80.3087 107.369C80.85 108.19 81.1207 109.114 81.1207 110.141C81.1207 111.074 80.8127 111.97 80.1967 112.829C79.5807 113.669 78.7687 114.406 77.7607 115.041ZM76.7247 111.513C76.7247 110.094 76.3607 108.946 75.6327 108.069C74.9047 107.173 73.822 106.725 72.3847 106.725C71.414 106.725 70.5274 106.968 69.7247 107.453V114.817H73.3647C74.4287 114.817 75.25 114.537 75.8287 113.977C76.426 113.398 76.7247 112.577 76.7247 111.513ZM73.7847 124.813C75.0354 124.813 76.0247 124.505 76.7527 123.889C77.4807 123.254 77.8447 122.396 77.8447 121.313C77.8447 119.932 77.4434 118.821 76.6407 117.981C75.8567 117.122 74.69 116.665 73.1407 116.609C73.01 116.628 72.8234 116.637 72.5807 116.637H69.7247V124.169C70.8634 124.636 72.2167 124.869 73.7847 124.869V124.813Z" fill="#003DE8"/>
<path d="M39.1424 125.037H25.5904V124.135L27.6584 122.507V109.549L25.3264 108.845L25.8764 107.745H33.0044V108.647L30.9144 110.275V123.761H36.3044L39.6044 118.943L40.4844 119.273V125.433L39.1424 125.037ZM52.3717 107.305C53.9851 107.305 55.4077 107.679 56.6397 108.427C57.8864 109.175 58.8471 110.209 59.5217 111.529C60.1964 112.849 60.5337 114.345 60.5337 116.017C60.5337 117.733 60.0204 119.317 58.9937 120.769C57.9671 122.221 56.6911 123.372 55.1657 124.223C53.6404 125.059 52.1884 125.477 50.8097 125.477C49.2111 125.477 47.7957 125.11 46.5637 124.377C45.3317 123.629 44.3711 122.595 43.6817 121.275C43.0071 119.955 42.6697 118.459 42.6697 116.787C42.6697 115.071 43.1831 113.487 44.2097 112.035C45.2364 110.568 46.5051 109.417 48.0157 108.581C49.5411 107.73 50.9931 107.305 52.3717 107.305ZM51.0957 109.417C50.1864 109.417 49.3577 109.688 48.6097 110.231C47.8617 110.773 47.2677 111.529 46.8277 112.497C46.4024 113.465 46.1897 114.543 46.1897 115.731C46.1897 117.124 46.4024 118.4 46.8277 119.559C47.2677 120.703 47.9277 121.619 48.8077 122.309C49.6877 122.998 50.7804 123.343 52.0857 123.343C52.9951 123.343 53.8237 123.071 54.5717 122.529C55.3344 121.986 55.9284 121.238 56.3537 120.285C56.7937 119.317 57.0137 118.239 57.0137 117.051C57.0137 115.643 56.7937 114.367 56.3537 113.223C55.9284 112.064 55.2684 111.14 54.3737 110.451C53.4937 109.761 52.4011 109.417 51.0957 109.417Z" fill="#003DE8"/>
<path d="M93.6212 107.305C95.2052 107.305 96.6058 107.679 97.8232 108.427C99.0405 109.175 99.9792 110.209 100.639 111.529C101.314 112.849 101.651 114.345 101.651 116.017C101.651 117.733 101.145 119.317 100.133 120.769C99.1212 122.221 97.8598 123.372 96.3492 124.223C94.8532 125.059 93.4232 125.477 92.0592 125.477C90.4898 125.477 89.0965 125.11 87.8792 124.377C86.6618 123.629 85.7158 122.595 85.0412 121.275C84.3812 119.955 84.0512 118.459 84.0512 116.787C84.0512 115.071 84.5572 113.487 85.5692 112.035C86.5812 110.568 87.8352 109.417 89.3312 108.581C90.8272 107.73 92.2572 107.305 93.6212 107.305ZM92.3452 109.285C91.4065 109.285 90.5485 109.563 89.7712 110.121C89.0085 110.678 88.3998 111.448 87.9452 112.431C87.5052 113.413 87.2852 114.513 87.2852 115.731C87.2852 117.153 87.5052 118.451 87.9452 119.625C88.3852 120.798 89.0598 121.737 89.9692 122.441C90.8785 123.145 92.0005 123.497 93.3352 123.497C94.2738 123.497 95.1245 123.218 95.8872 122.661C96.6645 122.103 97.2732 121.333 97.7132 120.351C98.1678 119.368 98.3952 118.268 98.3952 117.051C98.3952 115.613 98.1752 114.308 97.7352 113.135C97.2952 111.961 96.6205 111.03 95.7112 110.341C94.8018 109.637 93.6798 109.285 92.3452 109.285ZM113.682 107.305C115.266 107.305 116.666 107.679 117.884 108.427C119.101 109.175 120.04 110.209 120.7 111.529C121.374 112.849 121.712 114.345 121.712 116.017C121.712 117.733 121.206 119.317 120.194 120.769C119.182 122.221 117.92 123.372 116.41 124.223C114.914 125.059 113.484 125.477 112.12 125.477C110.55 125.477 109.157 125.11 107.94 124.377C106.722 123.629 105.776 122.595 105.102 121.275C104.442 119.955 104.112 118.459 104.112 116.787C104.112 115.071 104.618 113.487 105.63 112.035C106.642 110.568 107.896 109.417 109.392 108.581C110.888 107.73 112.318 107.305 113.682 107.305ZM112.406 109.285C111.467 109.285 110.609 109.563 109.832 110.121C109.069 110.678 108.46 111.448 108.006 112.431C107.566 113.413 107.346 114.513 107.346 115.731C107.346 117.153 107.566 118.451 108.006 119.625C108.446 120.798 109.12 121.737 110.03 122.441C110.939 123.145 112.061 123.497 113.396 123.497C114.334 123.497 115.185 123.218 115.948 122.661C116.725 122.103 117.334 121.333 117.774 120.351C118.228 119.368 118.456 118.268 118.456 117.051C118.456 115.613 118.236 114.308 117.796 113.135C117.356 111.961 116.681 111.03 115.772 110.341C114.862 109.637 113.74 109.285 112.406 109.285ZM131.344 124.025L130.86 125.015H123.952V124.223L126.02 122.595V109.483L123.688 108.735L124.194 107.745H131.102V108.537L129.012 110.187V123.255L131.344 124.025ZM141.024 124.993H136.91L130.2 116.325L136.866 110.495L134.314 108.691L134.82 107.701H140.87V108.493L133.104 115.291L139 122.793L141.53 124.003L141.024 124.993Z" fill="#003DE8"/>
</svg>
